<svg xmlns="http://www.w3.org/2000/svg" width="500" height="500" viewBox="0 0 500 500">
<g>
<path d="M 423.80,477.65 L 423.05,479.04 L 421.63,481.64 L 420.94,482.91 L 419.65,485.27 L 419.03,486.42 L 417.89,488.51 L 417.34,489.51 L 416.35,491.31 L 415.89,492.16 L 415.08,493.63 L 414.70,494.33 L 414.08,495.45 L 413.79,495.96 L 413.38,496.70 L 413.00,497.36 L 411.26,500.22 L 407.74,494.86 L 407.30,494.20 L 407.34,494.25 L 408.38,495.68 L 408.86,496.17 L 409.33,496.60 L 409.58,496.73 L 410.08,496.93 L 410.35,496.93 L 410.91,496.84 L 411.23,496.67 L 411.89,496.23 L 412.28,495.86 L 413.08,495.02 L 413.55,494.43 L 414.53,493.14 L 415.10,492.30 L 416.29,490.49 L 416.99,489.37 L 418.44,486.99 L 419.27,485.56 L 421.01,482.55 L 422.01,480.79 L 424.08,477.10 L 425.25,474.98 L 425.35,474.79 M 398.10,476.79 L 398.54,477.78 L 400.44,481.93 L 401.50,484.04 L 403.65,488.19 L 404.66,489.97 L 404.82,490.25 L 404.33,489.45 L 403.30,487.74 L 401.53,484.51 L 400.69,482.92 L 399.28,479.87 L 398.61,478.35 L 397.57,475.51 M 444.77,379.28 L 447.02,379.51 L 448.11,379.61 L 450.17,379.78 L 452.21,379.93 L 456.42,380.12 L 457.53,380.15 L 460.01,380.22 L 464.25,380.30 L 465.86,380.33 L 468.81,380.41 L 470.21,380.45 L 472.54,380.54 L 473.61,380.59 L 475.07,380.70 L 475.37,380.72 L 475.76,380.77 L 476.00,380.85 L 476.00,380.86 L 475.82,381.21 L 475.71,381.44 L 475.31,382.19 L 475.09,382.62 L 474.49,383.75 L 474.17,384.36 L 473.38,385.84 L 472.97,386.62 L 472.00,388.42 L 471.50,389.36 L 470.38,391.45 L 469.80,392.54 L 468.53,394.90 L 467.87,396.12 L 466.47,398.73 L 465.04,401.39 L 461.84,407.33 L 460.27,410.25 L 461.79,407.41 L 465.00,401.45 L 466.42,398.81 L 467.80,396.23 L 468.44,395.04 L 469.68,392.72 L 470.25,391.67 L 471.34,389.62 L 471.82,388.71 L 472.76,386.97 L 473.16,386.22 L 473.92,384.79 L 474.23,384.20 L 474.81,383.11 L 475.02,382.70 L 475.41,381.97 L 475.52,381.74 L 475.70,381.39 L 475.71,381.36 L 475.53,381.18 L 475.17,381.06 L 474.89,381.01 L 473.50,380.79 L 472.46,380.69 L 470.17,380.51 L 468.78,380.45 L 465.86,380.33 L 464.25,380.30 L 460.01,380.22 L 457.53,380.15 L 456.42,380.12 L 452.21,379.93 L 450.17,379.78 L 448.11,379.61 L 447.02,379.51 L 444.77,379.28 L 443.69,379.16 M 24.00,401.93 L 24.00,401.81 L 24.21,401.53 L 24.00,401.81 M 439.43,378.66 L 440.92,378.84 L 439.43,378.66 L 436.31,378.28 L 434.50,378.05 L 436.31,378.28 M 302.37,105.33 L 302.37,105.33 L 299.44,102.04 M 299.00,101.54 L 299.00,101.53 L 297.80,100.11 M 297.40,99.63 L 297.39,99.62 L 295.81,97.31 M 285.00,73.63 L 285.10,73.74 L 285.59,74.65 L 286.08,75.80 L 286.38,76.58 L 287.01,78.25 L 287.36,79.23 L 287.76,80.37 L 287.33,79.20 L 286.95,78.21 L 286.22,76.49 L 285.86,75.68 L 285.23,74.47 L 284.49,73.44 L 284.35,73.32 M 273.63,62.48 L 272.57,63.56 L 272.14,64.04 L 271.32,64.94 L 271.00,65.33 L 270.42,66.06 L 270.21,66.36 L 269.85,66.94 L 269.75,67.17 L 269.54,67.94 L 269.74,68.14 L 270.69,68.71 L 271.78,69.18 L 272.49,69.45 L 274.02,70.00 L 274.88,70.28 L 276.67,70.84 L 277.60,71.10 L 277.72,71.13 L 275.07,70.45 L 273.96,70.19 L 271.93,69.66 L 270.97,69.40 L 269.37,68.91 L 268.64,68.68 L 267.64,68.30 L 267.00,67.90 L 267.00,67.82 L 267.30,67.45 L 267.49,67.24 L 268.10,66.69 L 270.75,64.64 L 271.61,64.04 L 273.42,62.60 L 273.83,62.27 M 289.39,42.58 L 288.83,44.22 L 288.47,45.21 L 287.22,47.89 L 286.05,49.72 L 285.22,50.75 L 283.39,52.88 L 282.15,54.15 L 281.91,54.41 L 282.41,53.84 L 283.96,52.01 L 284.70,51.10 L 285.98,49.38 L 286.59,48.53 L 287.54,47.00 L 288.52,45.00 L 288.87,44.04 L 289.40,42.54 M 287.02,34.90 L 287.61,35.30 L 288.67,36.08 L 289.04,36.46 L 289.50,37.00 L 289.04,36.46 L 288.66,36.09 L 287.61,35.30 L 287.02,34.90 L 285.51,34.00 L 282.68,32.40 L 285.51,34.00 Z" fill="rgba(255,78,21,1)"/>
<path d="M 80.13,214.79 L 79.67,215.16 L 79.10,215.95 L 78.85,216.36 L 78.62,217.41 L 78.50,219.52 L 78.50,220.33 L 78.72,221.74 L 78.87,222.42 L 79.46,223.60 L 79.81,224.16 L 80.53,224.82 L 79.88,224.27 L 79.49,223.72 L 78.80,222.58 L 78.59,221.93 L 78.26,220.56 L 78.19,219.78 L 78.14,217.87 L 78.27,216.89 L 78.44,216.49 L 78.85,215.76 L 79.19,215.42 L 79.95,214.77 L 80.48,214.42 L 81.01,214.17 M 103.99,209.56 L 105.16,209.76 L 105.38,209.98 L 106.07,210.39 L 106.74,210.61 L 107.13,210.70 L 107.56,210.76 L 107.44,210.77 L 106.40,210.86 L 103.80,211.00 L 99.14,211.19 L 97.71,211.23 L 95.23,211.33 L 94.04,211.38 L 92.01,211.49 L 91.05,211.55 L 89.40,211.68 L 88.62,211.75 L 87.50,211.89 L 88.42,211.65 L 89.77,211.35 L 92.50,210.76 L 93.88,210.52 L 96.60,210.06 L 97.86,209.90 L 100.32,209.62 L 101.36,209.56 L 103.30,209.50 M 110.30,209.06 L 110.96,209.20 L 111.78,209.47 L 112.11,209.61 L 112.24,209.86 L 112.23,209.88 L 112.04,209.74 L 111.38,209.46 L 110.95,209.32 L 109.04,208.81 Z" fill="rgba(255,81,20,1)"/>
<path d="M 263.42,338.23 L 264.24,338.80 L 264.67,339.47 L 265.12,340.21 L 265.37,340.72 L 265.90,341.81 L 266.21,342.52 L 266.86,344.03 L 267.25,344.97 L 268.07,346.97 L 268.56,348.18 L 271.10,353.88 L 272.98,357.56 L 274.01,359.34 L 276.13,362.85 L 277.28,364.55 L 279.66,367.91 L 280.94,369.53 L 283.57,372.74 L 284.98,374.29 L 287.86,377.35 L 289.41,378.82 L 292.56,381.74 L 294.23,383.15 L 297.65,385.94 L 299.46,387.28 L 307.38,392.59 L 313.12,395.89 L 316.21,397.43 L 322.55,400.42 L 325.94,401.80 L 332.86,404.48 L 336.54,405.70 L 344.04,408.07 L 348.01,409.13 L 356.09,411.17 L 360.34,412.07 L 368.97,413.79 L 373.50,414.53 L 382.70,415.92 L 387.50,416.49 L 392.08,417.08 L 394.68,417.45 L 395.77,417.64 L 397.82,418.01 L 398.65,418.21 L 400.20,418.60 L 400.81,418.81 L 401.92,419.25 L 402.34,419.49 L 403.07,419.99 L 403.32,420.27 L 403.74,420.85 L 403.84,421.18 L 404.00,421.87 L 404.00,422.25 L 403.60,424.46 L 403.02,425.99 L 402.64,426.53 L 401.86,427.87 L 401.33,428.99 L 401.06,429.64 L 399.98,432.51 L 399.46,434.26 L 398.42,437.93 L 397.95,439.97 L 397.05,444.16 L 396.67,446.36 L 396.24,449.01 L 396.03,450.56 L 395.96,451.28 L 395.79,454.07 L 395.87,455.62 L 395.99,457.23 L 396.09,458.14 L 396.34,460.06 L 396.51,461.19 L 396.89,463.58 L 397.13,465.00 L 397.65,468.01 L 397.97,469.80 L 398.52,472.06 L 399.07,473.81 L 399.42,474.77 L 401.00,478.82 L 401.97,480.94 L 404.02,485.19 L 405.10,487.12 L 406.18,489.00 L 406.71,489.84 L 407.76,491.45 L 408.25,492.13 L 409.45,493.64 L 409.96,494.16 L 410.44,494.63 L 410.63,494.77 L 410.98,495.00 L 411.07,495.00 L 411.52,494.82 L 411.88,494.52 L 412.10,494.26 L 412.58,493.66 L 412.86,493.24 L 413.47,492.32 L 413.84,491.72 L 414.61,490.43 L 415.06,489.63 L 416.01,487.93 L 416.57,486.91 L 417.73,484.77 L 418.39,483.51 L 419.79,480.88 L 420.58,479.36 L 423.10,474.55 L 424.89,471.15 L 425.77,469.49 L 427.50,466.22 L 428.27,464.77 L 429.73,462.03 L 430.28,461.00 L 432.12,457.57 L 433.47,455.06 L 434.15,453.79 L 435.50,451.27 L 436.12,450.12 L 437.30,447.89 L 437.78,447.00 L 439.43,443.96 L 440.68,441.68 L 441.34,440.50 L 442.65,438.14 L 443.28,437.04 L 444.49,434.89 L 445.00,434.00 L 446.83,430.77 L 448.27,428.17 L 449.04,426.77 L 450.60,423.91 L 451.36,422.51 L 452.85,419.74 L 453.50,418.50 L 455.54,414.80 L 456.91,412.44 L 457.56,411.39 L 458.81,409.40 L 459.34,408.64 L 460.31,407.28 L 460.64,406.93 L 462.17,404.96 L 462.46,404.44 L 462.52,404.25 L 462.58,403.92 L 462.51,403.84 L 462.51,403.30 L 462.70,402.63 L 462.88,402.18 L 463.80,400.13 L 464.49,398.91 L 465.62,396.84 L 466.45,395.28 L 466.86,394.47 L 467.68,392.86 L 468.06,392.10 L 468.78,390.62 L 469.06,390.00 L 470.95,386.59 L 471.58,385.69 L 471.85,385.37 L 472.38,384.81 L 472.57,384.70 L 473.58,383.64 L 474.00,382.67 L 474.00,382.20 L 473.75,381.33 L 473.26,380.94 L 472.77,380.83 L 471.62,380.65 L 470.72,380.62 L 469.76,380.60 L 469.19,380.60 L 467.97,380.61 L 467.25,380.63 L 461.70,380.92 L 460.07,381.08 L 459.41,381.17 L 458.21,381.36 L 457.84,381.46 L 455.36,381.64 L 453.70,381.38 L 453.13,381.07 L 452.03,380.61 L 451.09,380.31 L 450.56,380.17 L 448.33,379.68 L 447.29,379.57 L 444.46,379.25 L 444.77,379.28 L 447.02,379.51 L 448.11,379.61 L 450.17,379.78 L 452.21,379.93 L 456.42,380.12 L 457.53,380.15 L 460.01,380.22 L 464.25,380.30 L 465.86,380.33 L 468.78,380.45 L 470.17,380.51 L 472.46,380.69 L 473.50,380.79 L 474.89,381.01 L 475.17,381.06 L 475.53,381.18 L 475.71,381.36 L 475.70,381.39 L 475.52,381.74 L 475.41,381.97 L 475.02,382.70 L 474.81,383.11 L 474.23,384.20 L 473.92,384.79 L 473.16,386.22 L 472.76,386.97 L 471.82,388.71 L 471.34,389.62 L 470.25,391.67 L 469.68,392.72 L 468.44,395.04 L 467.80,396.23 L 466.42,398.81 L 465.00,401.45 L 461.79,407.41 L 460.14,410.50 L 456.51,417.23 L 454.65,420.68 L 450.69,428.03 L 444.46,439.57 L 443.42,441.50 L 441.44,445.17 L 440.47,446.98 L 438.61,450.41 L 436.79,453.79 L 433.50,459.87 L 431.91,462.80 L 429.06,468.03 L 427.69,470.54 L 425.25,474.98 L 424.08,477.10 L 422.01,480.79 L 421.01,482.55 L 419.27,485.56 L 418.44,486.99 L 416.99,489.37 L 416.29,490.49 L 415.10,492.30 L 414.53,493.14 L 413.55,494.43 L 413.08,495.02 L 412.28,495.86 L 411.89,496.23 L 411.23,496.67 L 410.91,496.84 L 410.35,496.93 L 410.08,496.93 L 409.58,496.73 L 409.33,496.60 L 408.86,496.17 L 408.38,495.68 L 407.34,494.25 L 406.97,493.75 L 406.10,492.40 L 405.65,491.68 L 404.66,489.97 L 403.65,488.19 L 401.50,484.04 L 400.44,481.93 L 398.54,477.78 L 398.10,476.79 L 397.34,474.95 L 396.44,472.54 L 396.17,471.74 L 395.71,469.65 L 395.49,468.54 L 395.14,465.87 L 394.97,464.47 L 394.73,461.28 L 394.51,455.96 L 394.47,454.40 L 394.50,451.51 L 394.52,450.10 L 394.68,447.44 L 394.87,444.83 L 395.70,440.08 L 396.20,437.74 L 397.73,433.21 L 400.90,426.15 L 401.52,424.96 L 402.34,422.94 L 402.50,422.50 L 402.67,421.85 L 402.65,421.32 L 402.62,421.29 L 402.31,421.19 L 402.12,421.14 L 401.53,421.02 L 400.87,420.89 L 398.83,420.56 L 397.72,420.38 L 394.97,420.00 L 390.33,419.40 L 384.14,418.65 L 372.38,416.75 L 366.61,415.73 L 355.72,413.29 L 350.39,412.01 L 340.37,409.04 L 335.47,407.49 L 326.34,404.00 L 321.88,402.19 L 313.65,398.18 L 309.64,396.11 L 302.32,391.58 L 298.77,389.26 L 292.37,384.22 L 283.81,376.10 L 281.96,374.10 L 278.68,370.02 L 277.10,367.95 L 274.27,363.60 L 272.89,361.37 L 270.39,356.56 L 266.90,348.63 L 266.46,347.51 L 265.62,345.44 L 265.22,344.45 L 264.52,342.77 L 264.20,342.00 L 263.73,340.89 L 263.34,340.09 L 263.27,340.00 L 262.50,340.07 L 262.02,340.13 L 260.54,340.47 L 259.73,340.66 L 257.72,341.22 L 256.66,341.53 L 254.27,342.26 L 251.81,343.02 L 246.45,344.86 L 245.13,345.33 L 242.57,346.28 L 239.02,347.68 L 236.53,348.71 L 231.62,351.03 L 229.18,352.24 L 224.37,354.92 L 221.98,356.30 L 217.28,359.33 L 214.94,360.89 L 210.35,364.25 L 208.07,365.98 L 203.59,369.67 L 201.37,371.56 L 197.02,375.58 L 194.87,377.64 L 190.65,381.97 L 188.56,384.18 L 184.48,388.83 L 182.45,391.19 L 178.52,396.14 L 176.57,398.65 L 172.78,403.90 L 170.91,406.56 L 167.28,412.09 L 165.48,414.89 L 162.01,420.70 L 160.30,423.64 L 157.00,429.72 L 155.38,432.80 L 152.25,439.15 L 150.71,442.35 L 147.77,448.96 L 143.57,459.15 L 142.96,460.72 L 141.65,464.25 L 140.99,466.04 L 139.69,469.70 L 139.07,471.50 L 137.95,474.84 L 136.63,479.03 L 136.26,480.28 L 135.54,482.45 L 135.18,483.47 L 134.51,485.07 L 134.19,485.79 L 133.63,486.71 L 132.98,487.22 L 132.81,487.18 L 132.32,486.94 L 132.05,486.79 L 131.32,486.34 L 130.93,486.08 L 129.97,485.40 L 129.46,485.03 L 128.25,484.13 L 127.61,483.64 L 126.15,482.50 L 125.39,481.90 L 123.68,480.53 L 122.79,479.81 L 120.81,478.19 L 117.53,475.48 L 116.89,474.94 L 115.21,473.57 L 114.29,472.83 L 112.02,471.01 L 110.81,470.03 L 107.89,467.71 L 106.34,466.48 L 102.71,463.61 L 100.80,462.11 L 96.40,458.64 L 95.24,457.73 L 92.78,455.79 L 91.52,454.81 L 88.84,452.70 L 87.48,451.63 L 84.58,449.36 L 83.10,448.20 L 79.96,445.74 L 78.37,444.49 L 75.00,441.86 L 69.66,437.68 L 68.54,436.81 L 65.89,434.74 L 64.50,433.66 L 61.37,431.24 L 59.76,430.00 L 56.26,427.30 L 54.48,425.93 L 50.70,423.02 L 46.87,420.08 L 38.78,413.89 L 26.75,404.71 L 25.99,404.14 L 24.81,403.04 L 24.56,402.78 L 24.22,402.37 L 24.00,401.93 L 24.00,401.81 L 24.21,401.53 L 24.24,401.50 L 26.33,402.89 L 28.53,404.36 L 29.79,405.22 L 30.33,405.59 L 32.27,406.95 L 32.94,407.47 L 34.11,408.40 L 34.49,408.76 L 35.12,409.43 L 35.30,409.73 L 36.17,410.63 L 36.87,411.00 L 37.16,411.00 L 38.12,411.43 L 39.27,412.13 L 40.10,412.69 L 41.91,413.95 L 43.07,414.78 L 45.54,416.58 L 47.01,417.68 L 50.11,420.00 L 51.89,421.36 L 55.62,424.20 L 57.70,425.81 L 62.03,429.16 L 64.41,431.02 L 69.33,434.86 L 72.00,436.97 L 80.04,443.29 L 84.98,447.17 L 87.25,448.96 L 91.65,452.41 L 93.66,453.99 L 97.57,457.06 L 99.35,458.46 L 102.79,461.16 L 104.36,462.38 L 107.38,464.75 L 108.75,465.82 L 111.39,467.88 L 112.58,468.81 L 114.88,470.60 L 115.91,471.40 L 118.90,473.74 L 120.68,475.16 L 121.42,475.75 L 122.76,476.83 L 123.21,477.21 L 123.93,477.82 L 124.00,477.91 L 124.48,478.36 L 125.06,478.84 L 125.44,479.14 L 127.17,480.50 L 128.18,481.26 L 130.72,482.94 L 132.14,483.70 L 132.65,483.87 L 133.53,484.06 L 133.69,483.93 L 133.80,483.75 L 133.77,483.60 L 133.66,483.26 L 133.51,483.02 L 133.41,481.72 L 133.72,480.53 L 134.02,479.96 L 134.91,477.99 L 135.39,476.65 L 135.48,476.19 L 135.95,474.32 L 136.41,472.72 L 136.71,471.79 L 138.01,467.77 L 138.77,465.62 L 140.33,461.33 L 141.06,459.48 L 141.77,457.72 L 142.08,456.98 L 142.68,455.63 L 142.92,455.16 L 144.39,451.94 L 144.73,451.04 L 144.84,450.70 L 145.00,450.09 L 145.00,449.93 L 145.17,449.13 L 145.43,448.33 L 145.64,447.81 L 146.10,446.70 L 146.39,446.03 L 147.02,444.64 L 147.39,443.85 L 149.00,440.47 L 149.98,438.52 L 152.04,434.47 L 153.17,432.31 L 157.94,423.41 L 160.31,419.23 L 162.66,415.14 L 163.75,413.32 L 165.85,409.87 L 166.75,408.50 L 173.68,398.45 L 178.36,392.20 L 180.74,389.28 L 185.53,383.58 L 187.98,380.93 L 192.92,375.76 L 195.45,373.36 L 200.57,368.69 L 203.20,366.53 L 208.52,362.32 L 211.27,360.38 L 216.83,356.60 L 219.72,354.87 L 225.55,351.50 L 228.59,349.96 L 232.57,348.06 L 235.60,346.73 L 237.23,346.06 L 243.99,343.36 L 247.31,342.17 L 250.60,341.02 L 252.13,340.51 L 255.08,339.56 L 256.37,339.19 L 258.80,338.52 L 259.74,338.32 L 261.43,338.00 L 261.92,338.00 M 214.23,274.93 L 216.46,274.93 L 217.22,274.93 L 218.51,274.95 L 218.75,274.95 L 219.63,275.69 L 220.00,276.73 L 220.00,277.38 L 219.73,278.73 L 219.15,279.47 L 218.55,279.82 L 217.88,280.18 L 217.45,280.37 L 216.50,280.75 L 215.91,280.96 L 214.65,281.41 L 213.88,281.66 L 212.24,282.18 L 211.27,282.49 L 202.98,285.46 L 197.56,287.79 L 194.96,289.09 L 189.86,291.79 L 187.50,293.24 L 182.92,296.21 L 180.88,297.76 L 178.26,299.70 L 176.59,300.89 L 175.85,301.39 L 174.45,302.32 L 173.92,302.65 L 172.97,303.20 L 172.73,303.29 L 171.20,304.43 L 170.29,305.60 L 170.04,306.23 L 169.38,307.55 L 169.21,307.74 L 169.16,307.74 L 169.07,307.68 L 169.06,307.55 L 168.74,307.45 L 168.26,307.69 L 167.93,307.93 L 166.38,309.18 L 165.50,310.02 L 163.75,311.77 L 163.09,312.56 L 162.49,313.31 L 162.30,313.61 L 162.00,314.15 L 162.00,314.31 L 161.61,315.24 L 161.01,316.25 L 160.58,316.90 L 159.65,318.27 L 159.10,319.04 L 157.95,320.61 L 157.34,321.42 L 154.85,324.62 L 153.78,325.88 L 152.75,327.05 L 152.34,327.47 L 151.61,328.18 L 151.40,328.30 L 150.41,329.18 L 150.00,329.87 L 150.00,330.16 L 149.88,330.57 L 149.69,331.03 L 149.54,331.34 L 148.82,332.78 L 148.29,333.75 L 147.14,335.83 L 146.45,337.04 L 144.99,339.54 L 144.19,340.86 L 142.00,344.65 L 140.42,347.53 L 139.58,349.11 L 136.13,355.74 L 134.38,359.29 L 130.91,366.48 L 129.33,369.93 L 127.80,373.33 L 127.10,374.94 L 125.76,378.08 L 125.18,379.50 L 122.01,387.58 L 119.93,393.04 L 119.04,395.48 L 118.18,397.84 L 117.81,398.88 L 117.12,400.86 L 116.85,401.66 L 116.37,403.13 L 116.22,403.63 L 116.00,404.46 L 116.00,404.60 L 115.49,405.82 L 114.73,406.82 L 114.25,407.24 L 113.03,407.96 L 112.01,408.06 L 111.22,407.86 L 110.38,407.63 L 109.85,407.44 L 108.72,407.02 L 108.02,406.74 L 106.54,406.12 L 105.65,405.73 L 103.75,404.90 L 102.62,404.40 L 98.69,402.69 L 96.29,401.69 L 95.28,401.29 L 93.42,400.57 L 92.78,400.35 L 92.18,400.15 L 91.97,400.09 L 91.61,400.00 L 91.52,400.00 L 90.16,399.43 L 89.05,398.60 L 88.57,398.08 L 87.23,397.12 L 85.94,396.52 L 85.15,396.24 L 83.47,395.74 L 83.83,395.81 L 87.18,396.56 L 88.05,396.80 L 90.37,397.57 L 91.61,397.99 L 94.40,399.05 L 102.88,402.63 L 104.17,403.23 L 106.55,404.33 L 107.69,404.85 L 109.61,405.72 L 110.48,406.11 L 111.72,406.66 L 111.98,406.77 L 112.33,406.91 L 112.59,407.00 L 112.63,407.00 L 112.79,406.74 L 112.88,406.58 L 113.10,406.05 L 113.88,403.75 L 114.38,402.08 L 115.67,398.26 L 116.35,396.29 L 117.95,391.97 L 118.78,389.76 L 120.63,385.09 L 121.58,382.73 L 123.62,377.86 L 125.68,372.98 L 130.11,363.27 L 131.21,360.89 L 133.42,356.35 L 136.65,350.00 L 138.16,347.11 L 141.34,341.52 L 142.94,338.77 L 146.26,333.46 L 147.93,330.85 L 151.37,325.88 L 153.10,323.43 L 156.63,318.82 L 158.40,316.56 L 161.99,312.34 L 163.79,310.29 L 167.40,306.51 L 169.21,304.68 L 172.83,301.38 L 178.22,297.01 L 179.33,296.19 L 181.81,294.51 L 183.08,293.68 L 185.82,292.02 L 188.60,290.37 L 194.57,287.29 L 197.57,285.81 L 203.44,283.33 L 204.87,282.76 L 207.60,281.80 L 211.39,280.65 L 213.01,280.23 L 215.88,279.24 L 216.51,279.01 L 217.49,278.57 L 218.38,278.02 L 218.43,277.97 L 218.25,277.88 L 218.12,277.83 L 217.56,277.75 L 217.24,277.71 L 216.28,277.63 L 215.76,277.59 L 214.40,277.53 L 213.67,277.50 L 211.89,277.44 L 210.94,277.41 L 208.72,277.36 L 207.56,277.33 L 204.89,277.29 L 203.50,277.27 L 200.36,277.24 L 198.74,277.22 L 195.12,277.20 L 193.26,277.18 L 189.15,277.17 L 187.04,277.16 L 182.43,277.15 L 180.06,277.14 L 174.92,277.14 L 172.29,277.14 L 166.63,277.14 L 163.72,277.14 L 157.51,277.15 L 154.33,277.16 L 147.55,277.18 L 136.74,277.21 L 61.60,277.47 L 62.67,277.40 L 63.45,277.35 L 65.09,277.25 L 66.01,277.20 L 67.94,277.11 L 69.00,277.06 L 73.50,276.85 L 76.07,276.75 L 81.44,276.55 L 84.37,276.46 L 90.39,276.26 L 93.57,276.17 L 100.04,275.99 L 103.37,275.91 L 116.88,275.61 L 123.50,275.51 L 127.31,275.46 L 130.45,275.42 L 132.28,275.40 L 136.10,275.37 L 138.22,275.35 L 142.60,275.31 L 144.96,275.29 L 149.77,275.25 L 152.29,275.24 L 157.40,275.20 L 160.03,275.18 L 170.69,275.11 L 176.00,275.08 L 181.27,275.05 L 183.84,275.04 L 188.93,275.01 L 191.35,275.00 L 196.12,274.98 L 198.33,274.97 L 202.65,274.95 L 204.60,274.95 L 208.35,274.93 L 209.96,274.93 L 213.01,274.93 M 31.21,398.71 L 30.15,399.03 L 30.94,398.79 L 32.27,398.43 M 35.05,397.70 L 36.00,397.44 L 36.41,397.34 M 36.97,397.20 L 37.48,397.08 L 38.51,396.83 M 41.02,396.24 L 41.31,396.17 L 43.46,395.68 L 44.48,395.45 L 45.16,395.31 M 64.08,393.72 L 66.69,393.83 L 68.04,393.90 L 70.94,394.12 L 73.89,394.36 L 74.20,394.40 L 73.38,394.45 L 72.90,394.56 L 72.09,394.86 L 71.93,395.11 L 71.32,395.70 L 70.75,395.87 L 70.33,395.84 L 69.38,395.70 L 68.71,395.50 L 67.22,395.04 L 66.23,394.68 L 63.74,393.88 L 63.04,393.72 M 52.11,394.34 L 51.42,394.34 L 50.82,394.38 L 49.50,394.51 L 50.25,394.41 L 50.77,394.35 L 51.66,394.30 M 439.43,378.66 L 440.76,378.82 L 439.53,378.68 L 436.62,378.32 M 423.81,376.37 L 434.47,378.05 L 434.35,378.03 L 432.07,377.72 L 429.86,377.41 L 428.89,377.27 L 427.06,377.00 L 426.33,376.88 L 425.00,376.65 L 424.56,376.56 L 423.85,376.40 L 423.80,376.37 M 396.87,39.50 L 397.84,41.54 L 399.41,45.72 L 400.13,47.82 L 401.19,52.10 L 401.66,54.25 L 402.22,58.60 L 402.43,60.78 L 402.48,65.17 L 402.45,67.36 L 401.99,71.74 L 401.71,73.93 L 400.75,78.27 L 400.21,80.44 L 398.75,84.71 L 396.00,91.00 L 395.24,92.50 L 393.61,95.32 L 392.77,96.70 L 390.96,99.30 L 390.03,100.58 L 388.01,102.98 L 386.98,104.16 L 384.73,106.39 L 383.58,107.49 L 381.09,109.57 L 379.81,110.59 L 377.04,112.54 L 375.62,113.50 L 372.56,115.34 L 367.61,118.00 L 360.62,121.50 L 356.26,131.50 L 354.83,134.78 L 351.96,141.75 L 350.53,145.28 L 347.70,152.63 L 344.89,160.04 L 339.62,175.31 L 338.35,179.11 L 335.96,186.62 L 334.80,190.35 L 332.67,197.58 L 331.64,201.15 L 329.83,207.95 L 327.52,217.47 L 326.49,222.08 L 324.79,231.11 L 324.00,235.58 L 322.78,244.29 L 322.24,248.60 L 321.51,256.94 L 321.20,261.06 L 320.96,268.98 L 320.90,272.87 L 321.14,280.31 L 321.33,283.97 L 322.06,290.87 L 322.49,294.26 L 323.71,300.58 L 326.09,309.35 L 326.65,311.04 L 328.15,314.53 L 328.95,316.29 L 330.89,319.87 L 331.91,321.66 L 334.26,325.26 L 335.47,327.06 L 338.17,330.63 L 339.56,332.40 L 342.56,335.87 L 344.10,337.59 L 347.36,340.92 L 349.02,342.55 L 352.50,345.66 L 357.91,350.02 L 360.13,351.68 L 365.15,354.90 L 367.74,356.49 L 373.40,359.52 L 376.30,361.01 L 382.50,363.80 L 385.65,365.17 L 392.26,367.70 L 395.61,368.92 L 402.52,371.13 L 406.00,372.19 L 413.09,374.05 L 416.65,374.92 L 423.71,376.35 L 422.66,376.35 L 421.58,376.69 L 421.03,376.98 L 418.79,377.49 L 417.98,377.34 L 417.51,377.18 L 416.53,376.77 L 415.94,376.47 L 413.28,375.46 L 412.44,375.27 L 412.08,375.24 L 411.41,375.21 L 411.18,375.26 L 409.26,375.19 L 407.69,374.79 L 407.00,374.47 L 404.21,373.44 L 401.96,372.81 L 401.00,372.63 L 399.26,372.22 L 397.83,371.82 L 396.99,371.57 L 393.37,370.41 L 391.29,369.68 L 387.01,368.13 L 384.82,367.29 L 380.48,365.57 L 378.50,364.71 L 374.15,362.62 L 370.86,360.85 L 369.10,359.84 L 361.91,355.52 L 358.59,353.32 L 355.36,351.14 L 353.95,350.14 L 351.30,348.19 L 350.28,347.37 L 349.32,346.57 L 348.94,346.23 L 348.23,345.56 L 347.99,345.29 L 347.57,344.78 L 347.49,344.59 L 347.40,344.27 L 347.49,344.18 L 347.63,343.74 L 347.54,343.37 L 347.43,343.16 L 346.80,342.27 L 346.33,341.84 L 345.33,341.05 L 344.84,340.82 L 343.91,340.52 L 343.62,340.68 L 343.05,340.89 L 343.04,340.73 L 343.24,340.50 L 343.42,339.52 L 343.14,338.73 L 342.87,338.38 L 342.27,337.72 L 341.94,337.54 L 341.28,337.33 L 341.00,337.50 L 340.34,337.29 L 339.65,336.72 L 339.21,336.26 L 338.27,335.22 L 337.73,334.55 L 336.60,333.13 L 335.99,332.31 L 333.45,328.77 L 332.16,326.79 L 329.64,322.76 L 328.58,320.82 L 325.99,315.30 L 324.39,311.08 L 323.65,308.79 L 322.25,304.11 L 321.63,301.68 L 320.47,296.80 L 320.01,294.38 L 319.15,289.56 L 318.85,287.26 L 318.34,282.78 L 318.24,280.75 L 318.14,276.85 L 318.26,275.22 L 318.40,273.64 L 318.52,272.95 L 318.79,271.63 L 318.97,271.08 L 319.59,268.94 L 319.81,267.81 L 319.81,267.33 L 319.76,266.41 L 319.64,265.98 L 319.33,265.12 L 319.08,264.65 L 318.52,263.06 L 318.33,261.70 L 318.32,260.77 L 318.37,258.73 L 318.49,257.36 L 318.62,255.93 L 318.70,255.11 L 318.89,253.38 L 319.01,252.41 L 319.86,245.64 L 320.44,241.51 L 320.73,239.64 L 321.30,236.02 L 321.59,234.41 L 322.17,231.33 L 322.45,230.00 L 323.01,227.21 L 323.43,224.96 L 323.59,224.00 L 324.17,220.99 L 324.66,218.71 L 324.96,217.45 L 325.59,214.84 L 325.95,213.43 L 326.70,210.55 L 327.11,209.01 L 328.87,202.64 L 329.89,199.18 L 331.99,192.12 L 333.14,188.44 L 337.95,173.43 L 340.47,166.15 L 343.01,158.95 L 344.25,155.56 L 346.73,148.96 L 347.91,146.00 L 349.70,141.50 L 350.79,138.78 L 351.28,137.55 L 352.25,135.18 L 352.69,134.11 L 353.55,132.06 L 353.94,131.14 L 354.72,129.37 L 355.08,128.58 L 355.78,127.07 L 356.11,126.40 L 357.40,123.94 L 358.02,122.98 L 359.24,121.24 L 359.88,120.55 L 361.19,119.27 L 361.93,118.73 L 363.48,117.70 L 364.40,117.19 L 366.33,116.16 L 367.50,115.57 L 371.75,113.17 L 374.50,111.37 L 375.84,110.38 L 378.47,108.35 L 379.74,107.25 L 382.22,105.01 L 383.39,103.82 L 385.70,101.40 L 386.77,100.14 L 388.87,97.57 L 389.83,96.23 L 391.68,93.54 L 392.51,92.16 L 394.10,89.38 L 394.79,87.97 L 397.86,80.52 L 398.63,78.19 L 398.89,77.18 L 399.34,75.28 L 399.41,74.58 L 400.08,70.81 L 400.37,69.80 L 400.52,69.42 L 400.83,68.77 L 400.97,68.63 L 401.74,67.02 L 401.98,65.53 L 401.96,64.68 L 401.83,62.97 L 401.63,62.16 L 401.14,60.59 L 400.76,59.99 L 400.20,58.92 L 400.02,58.29 L 400.02,57.99 L 400.09,57.39 L 400.22,57.06 L 400.53,56.38 L 400.79,55.97 L 401.35,54.77 L 401.46,53.99 L 401.37,53.53 L 401.09,52.57 L 400.79,51.93 L 400.07,50.56 L 399.53,49.63 L 397.74,45.59 L 397.32,44.20 L 397.20,43.58 L 397.00,42.38 L 396.99,41.91 L 396.82,39.73 L 396.64,39.07 M 54.32,115.68 L 54.56,117.22 L 54.71,117.75 L 55.05,118.65 L 55.25,118.85 L 55.41,119.42 L 55.51,120.18 L 55.56,120.75 L 55.65,122.01 L 55.69,122.81 L 55.78,124.52 L 55.82,125.53 L 55.90,127.66 L 55.94,128.87 L 56.01,131.38 L 56.04,132.77 L 56.11,135.63 L 56.14,137.18 L 56.19,140.36 L 56.22,142.06 L 56.32,149.12 L 56.36,152.99 L 56.43,160.94 L 56.45,165.16 L 56.50,173.72 L 56.51,178.14 L 56.52,187.05 L 56.52,191.54 L 56.51,200.52 L 56.49,204.94 L 56.45,213.71 L 56.42,217.93 L 56.36,226.22 L 56.31,230.09 L 56.22,237.63 L 56.16,241.03 L 56.11,244.35 L 56.07,245.90 L 56.01,248.93 L 55.97,250.32 L 55.90,253.01 L 55.86,254.22 L 55.79,256.54 L 55.74,257.56 L 55.66,259.48 L 55.61,260.28 L 55.52,261.76 L 55.47,262.33 L 55.38,263.35 L 55.33,263.67 L 55.22,264.18 L 55.17,264.23 L 54.71,265.19 L 54.45,266.25 L 54.34,266.93 L 54.15,268.39 L 54.09,269.21 L 54.00,270.91 L 54.00,277.50 L 54.00,277.50 L 54.00,188.86 L 54.00,186.36 L 54.00,181.57 L 54.00,179.21 L 54.00,174.69 L 54.00,170.24 L 54.01,162.10 L 54.01,158.16 L 54.02,150.99 L 54.03,147.53 L 54.05,141.28 L 54.06,138.26 L 54.08,132.86 L 54.09,130.26 L 54.12,125.65 L 54.14,123.43 L 54.18,119.55 L 54.20,117.69 L 54.25,115.08 M 143.22,173.30 L 145.29,173.78 L 146.24,174.27 L 148.10,175.41 L 148.95,176.22 L 150.59,178.02 L 151.34,179.18 L 152.79,181.65 L 153.43,183.14 L 154.68,186.29 L 155.24,188.13 L 156.30,191.98 L 156.76,194.17 L 157.63,198.72 L 158.01,201.26 L 159.07,206.62 L 159.48,208.12 L 159.68,208.70 L 160.07,209.74 L 160.24,210.01 L 161.91,211.41 L 163.34,211.90 L 158.47,212.19 L 157.23,208.77 L 156.90,207.83 L 156.36,205.43 L 156.00,202.19 L 156.00,201.30 L 155.73,198.92 L 155.55,197.66 L 154.96,194.75 L 154.63,193.25 L 153.79,190.07 L 152.32,185.31 L 151.95,184.23 L 151.12,182.35 L 150.69,181.45 L 149.75,179.91 L 149.26,179.18 L 148.19,177.98 L 147.63,177.42 L 146.44,176.57 L 145.82,176.18 L 144.50,175.66 L 143.82,175.45 L 142.36,175.27 L 141.61,175.22 L 140.02,175.39 L 137.49,176.00 L 136.34,176.38 L 134.54,177.59 L 133.72,178.27 L 132.52,180.17 L 132.00,181.21 L 131.37,183.89 L 131.00,188.89 L 131.00,189.72 L 130.94,191.26 L 130.90,192.00 L 130.77,193.27 L 130.70,193.85 L 130.52,194.71 L 130.21,195.37 L 130.10,195.44 L 129.27,195.34 L 128.77,195.26 L 127.31,194.89 L 126.52,194.68 L 124.61,194.11 L 121.46,193.05 L 119.03,192.20 L 113.97,190.77 L 111.45,190.11 L 106.63,189.15 L 105.47,188.95 L 103.28,188.64 L 102.22,188.51 L 100.29,188.35 L 99.36,188.30 L 97.75,188.31 L 95.78,188.52 L 94.53,188.79 L 92.46,189.68 L 91.50,190.19 L 90.02,191.55 L 89.36,192.28 L 88.52,194.04 L 88.00,197.11 L 88.00,197.85 L 88.12,199.03 L 88.21,199.58 L 88.56,200.49 L 88.77,200.92 L 89.40,201.68 L 90.75,202.79 L 91.55,203.35 L 93.89,204.51 L 95.16,205.09 L 98.16,206.18 L 99.70,206.71 L 102.97,207.61 L 107.77,208.60 L 108.95,208.78 L 110.95,209.32 L 111.38,209.46 L 112.04,209.74 L 112.58,210.13 L 112.68,210.28 L 112.54,210.53 L 112.43,210.64 L 111.95,210.80 L 111.41,210.94 L 109.73,210.98 L 108.86,210.96 L 107.13,210.70 L 106.74,210.61 L 106.07,210.39 L 105.38,209.98 L 105.16,209.76 L 103.99,209.56 L 103.30,209.50 L 101.36,209.56 L 100.32,209.62 L 97.86,209.90 L 96.60,210.06 L 93.88,210.52 L 92.50,210.76 L 89.77,211.35 L 88.42,211.65 L 85.92,212.32 L 84.72,212.66 L 82.70,213.36 L 80.48,214.42 L 79.95,214.77 L 79.19,215.42 L 78.85,215.76 L 78.44,216.49 L 78.27,216.89 L 78.14,217.87 L 78.19,219.78 L 78.26,220.56 L 78.59,221.93 L 78.80,222.58 L 79.49,223.72 L 79.88,224.27 L 81.01,225.24 L 81.65,225.70 L 83.32,226.52 L 84.23,226.92 L 86.53,227.64 L 87.76,227.99 L 90.79,228.65 L 92.39,228.98 L 96.23,229.62 L 101.12,230.33 L 100.89,230.31 L 100.57,230.40 L 100.09,230.66 L 100.08,230.92 L 100.22,231.55 L 100.50,232.00 L 101.04,232.53 L 101.43,232.64 L 102.01,232.70 L 101.33,232.84 L 98.67,233.57 L 97.43,233.95 L 95.52,234.80 L 94.65,235.24 L 93.35,236.28 L 91.94,238.12 L 91.65,238.66 L 91.29,239.69 L 91.15,240.20 L 91.09,241.17 L 91.09,241.66 L 91.33,242.58 L 91.49,243.04 L 92.03,243.91 L 92.35,244.35 L 93.20,245.18 L 93.66,245.59 L 94.82,246.39 L 95.45,246.79 L 96.92,247.55 L 99.50,248.67 L 100.03,248.88 L 101.82,249.22 L 102.81,249.37 L 105.35,249.60 L 106.68,249.70 L 109.73,249.83 L 111.30,249.87 L 114.65,249.89 L 118.02,249.88 L 124.68,249.54 L 126.26,249.43 L 129.11,249.13 L 130.47,248.97 L 132.70,248.56 L 133.64,248.37 L 135.91,247.80 L 137.09,247.50 L 139.61,246.79 L 140.88,246.43 L 143.34,245.67 L 146.64,244.56 L 147.45,244.27 L 148.84,243.79 L 149.51,243.56 L 150.66,243.20 L 151.78,242.88 L 153.64,242.57 L 154.56,242.46 L 156.49,242.54 L 156.86,242.59 L 155.81,242.52 L 155.27,242.58 L 154.31,242.79 L 153.93,243.01 L 153.20,243.55 L 152.82,243.96 L 151.84,244.73 L 150.94,245.24 L 150.42,245.46 L 148.17,246.30 L 147.06,246.49 L 144.05,247.22 L 143.28,247.50 L 143.01,247.64 L 142.56,247.90 L 142.49,248.02 L 141.83,248.39 L 141.00,248.67 L 140.44,248.80 L 139.21,249.07 L 138.50,249.19 L 137.02,249.41 L 136.23,249.50 L 131.33,250.23 L 129.82,250.52 L 129.18,250.66 L 128.00,250.94 L 127.60,251.07 L 125.11,251.50 L 123.84,251.28 L 123.41,250.92 L 122.32,250.51 L 121.13,250.31 L 120.33,250.25 L 118.63,250.17 L 117.61,250.17 L 115.49,250.20 L 114.30,250.26 L 109.98,250.55 L 108.20,250.74 L 106.53,250.92 L 105.89,251.01 L 104.77,251.20 L 104.50,251.28 L 103.19,251.40 L 102.10,251.31 L 101.48,251.18 L 98.83,250.50 L 97.44,249.95 L 94.68,248.73 L 93.52,248.03 L 92.41,247.31 L 91.96,246.95 L 91.14,246.22 L 90.87,245.87 L 89.41,242.71 L 89.11,240.36 L 89.28,239.21 L 89.82,236.96 L 90.39,236.01 L 91.00,235.09 L 91.38,234.70 L 92.18,233.98 L 92.65,233.70 L 93.82,232.71 L 93.97,232.13 L 93.71,231.88 L 92.99,231.40 L 92.31,231.20 L 90.72,230.82 L 89.60,230.67 L 86.38,230.07 L 84.43,229.54 L 83.56,229.22 L 81.90,228.53 L 81.17,228.12 L 79.79,227.26 L 79.20,226.77 L 78.10,225.75 L 77.66,225.19 L 76.85,224.01 L 76.56,223.36 L 76.04,222.03 L 75.89,221.30 L 75.67,219.82 L 75.67,219.02 L 75.80,217.22 L 76.05,216.16 L 76.26,215.68 L 76.75,214.77 L 77.11,214.35 L 77.90,213.55 L 78.43,213.18 L 79.57,212.45 L 80.28,212.11 L 81.82,211.42 L 82.75,211.09 L 84.73,210.41 L 85.91,210.07 L 88.38,209.37 L 89.82,209.00 L 94.14,207.88 L 90.20,205.03 L 87.39,202.45 L 86.18,200.64 L 85.90,199.65 L 85.55,197.62 L 85.69,196.48 L 86.18,194.10 L 86.72,192.74 L 88.23,190.17 L 89.59,188.78 L 90.45,188.24 L 92.27,187.26 L 93.36,186.94 L 95.64,186.38 L 96.96,186.26 L 99.69,186.13 L 101.22,186.23 L 104.40,186.52 L 106.16,186.83 L 109.77,187.54 L 111.74,188.06 L 115.78,189.20 L 117.96,189.93 L 121.55,191.12 L 123.69,191.82 L 124.56,192.10 L 126.15,192.60 L 126.66,192.76 L 127.50,193.00 L 127.56,193.00 L 127.73,192.64 L 127.83,192.08 L 127.87,191.67 L 128.00,189.71 L 128.00,188.47 L 128.19,185.28 L 128.50,183.33 L 128.75,182.45 L 129.31,180.75 L 129.68,180.00 L 130.49,178.54 L 130.99,177.91 L 132.04,176.70 L 132.66,176.19 L 133.96,175.23 L 134.70,174.84 L 136.24,174.14 L 137.10,173.88 L 138.88,173.42 L 139.86,173.29 M 259.80,179.40 L 261.37,180.08 L 262.28,180.71 L 264.19,182.18 L 265.33,183.22 L 266.51,184.33 L 267.16,184.96 L 268.51,186.29 L 269.25,187.04 L 270.77,188.59 L 271.61,189.46 L 273.34,191.25 L 274.30,192.24 L 278.35,196.45 L 280.81,199.02 L 281.93,200.19 L 284.08,202.46 L 285.05,203.50 L 286.91,205.49 L 287.74,206.40 L 289.33,208.14 L 290.02,208.93 L 291.35,210.44 L 291.92,211.12 L 293.00,212.43 L 293.45,213.01 L 294.30,214.13 L 294.65,214.63 L 295.81,216.48 L 296.11,217.21 L 296.53,218.56 L 296.50,219.11 L 296.29,220.15 L 296.00,220.61 L 295.29,221.52 L 294.79,221.98 L 293.40,223.15 L 292.25,224.00 L 291.58,224.46 L 288.67,226.35 L 286.93,227.36 L 283.29,229.43 L 281.30,230.48 L 277.22,232.58 L 275.12,233.59 L 270.91,235.58 L 268.85,236.48 L 264.80,238.21 L 262.94,238.93 L 259.36,240.27 L 257.84,240.73 L 256.38,241.16 L 255.74,241.32 L 254.51,241.59 L 254.00,241.66 L 250.50,242.27 L 247.96,242.81 L 247.00,243.06 L 245.31,243.42 L 243.98,243.63 L 243.28,243.72 L 240.42,243.99 L 239.25,243.99 L 236.25,244.22 L 235.55,244.37 L 235.33,244.46 L 235.00,244.65 L 235.00,244.75 L 234.79,244.90 L 234.45,244.99 L 234.19,245.04 L 232.92,245.20 L 231.99,245.26 L 229.95,245.37 L 228.73,245.39 L 226.16,245.43 L 224.75,245.42 L 220.18,245.49 L 217.34,245.63 L 216.08,245.75 L 213.65,246.01 L 212.65,246.18 L 210.78,246.55 L 210.10,246.76 L 207.93,247.37 L 206.72,247.60 L 206.21,247.63 L 205.24,247.62 L 204.82,247.53 L 203.99,247.30 L 203.60,247.10 L 202.95,246.87 L 202.30,246.72 L 201.88,246.64 L 199.97,246.32 L 198.74,246.16 L 196.11,245.87 L 194.63,245.74 L 191.58,245.50 L 190.00,245.42 L 183.89,245.09 L 180.34,244.89 L 178.80,244.79 L 178.24,244.76 L 178.96,244.79 L 182.66,244.94 L 184.62,245.02 L 189.22,245.17 L 190.43,245.21 L 193.05,245.29 L 197.31,245.42 L 201.55,245.54 L 209.48,245.55 L 213.36,245.51 L 220.66,245.18 L 224.23,244.97 L 231.01,244.27 L 234.34,243.88 L 240.71,242.80 L 243.85,242.21 L 249.93,240.72 L 252.95,239.92 L 258.86,238.00 L 261.80,236.99 L 267.66,234.62 L 276.50,230.54 L 278.29,229.65 L 281.81,227.81 L 283.53,226.89 L 286.66,225.15 L 288.14,224.31 L 290.51,222.88 L 291.04,222.54 L 291.90,221.97 L 292.84,221.28 L 296.17,218.49 L 278.00,199.25 L 275.50,196.60 L 270.90,191.77 L 269.81,190.62 L 267.77,188.51 L 266.79,187.48 L 265.02,185.65 L 264.17,184.78 L 262.72,183.30 L 262.04,182.61 L 260.95,181.52 L 260.46,181.03 L 259.79,180.39 L 259.32,180.00 L 259.25,180.00 L 258.65,180.43 L 258.28,180.71 L 257.18,181.61 L 256.58,182.11 L 255.14,183.36 L 252.74,185.50 L 250.82,187.23 L 246.23,190.51 L 243.82,192.12 L 238.32,195.11 L 235.46,196.57 L 229.13,199.26 L 225.88,200.56 L 218.83,202.91 L 215.23,204.03 L 207.57,206.00 L 203.67,206.94 L 195.49,208.50 L 191.35,209.23 L 182.75,210.36 L 169.48,211.53 L 166.73,211.69 L 166.87,211.65 L 168.46,210.99 L 169.08,210.43 L 170.48,209.69 L 171.96,209.23 L 172.96,209.02 L 175.15,208.61 L 176.52,208.43 L 179.43,208.08 L 181.15,207.92 L 192.02,206.63 L 199.06,205.49 L 202.46,204.79 L 209.16,203.31 L 212.36,202.44 L 218.65,200.64 L 221.61,199.63 L 227.42,197.53 L 230.12,196.38 L 235.37,194.01 L 237.76,192.73 L 242.38,190.12 L 244.43,188.73 L 248.35,185.90 L 250.02,184.40 L 253.01,181.80 L 254.70,180.47 L 255.45,180.04 L 256.91,179.32 L 257.62,179.21 L 259.04,179.15 M 103.00,232.49 L 102.98,232.49 L 104.37,232.14 L 105.52,231.96 M 108.50,231.34 L 106.90,231.67 L 106.90,231.65 L 106.75,231.56 L 106.33,231.37 L 105.97,231.25 L 105.15,231.01 L 104.60,230.88 L 103.36,230.65 M 258.20,6.29 L 258.63,6.39 L 259.90,6.83 L 260.59,7.08 L 262.26,7.78 L 263.12,8.15 L 265.02,9.03 L 266.94,9.93 L 270.80,11.97 L 271.71,12.47 L 273.34,13.44 L 274.34,14.10 L 273.15,13.53 L 271.28,13.00 L 270.60,13.00 L 268.66,12.70 L 267.66,12.26 L 267.49,11.98 L 266.79,11.42 L 266.23,11.36 L 265.99,11.51 L 264.83,11.30 L 263.78,10.61 L 263.27,10.06 L 262.22,8.98 L 261.78,8.61 L 261.65,8.61 L 261.45,8.71 L 261.39,8.94 L 261.31,9.51 L 261.28,9.97 L 261.75,11.91 L 262.63,13.49 L 263.31,14.38 L 264.82,16.24 L 265.78,17.24 L 267.81,19.27 L 268.99,20.32 L 271.43,22.43 L 272.77,23.48 L 275.51,25.57 L 276.95,26.57 L 279.88,28.54 L 281.37,29.44 L 284.36,31.17 L 285.85,31.92 L 288.32,33.26 L 289.80,34.15 L 290.41,34.56 L 291.54,35.35 L 291.92,35.67 L 292.55,36.27 L 292.62,36.46 L 292.61,37.56 L 292.38,38.77 L 292.18,39.54 L 291.71,41.19 L 291.40,42.11 L 290.75,44.01 L 290.36,45.00 L 288.64,48.95 L 287.43,51.15 L 286.67,52.20 L 285.02,54.30 L 283.90,55.49 L 282.73,56.71 L 282.05,57.39 L 280.61,58.79 L 279.79,59.58 L 276.76,62.50 L 274.99,64.24 L 274.29,64.95 L 273.01,66.25 L 272.61,66.68 L 272.26,67.06 L 272.16,67.19 L 272.00,67.39 L 272.00,67.42 L 272.34,67.63 L 272.86,67.81 L 273.25,67.91 L 275.08,68.33 L 276.25,68.52 L 279.20,69.07 L 280.87,69.45 L 281.58,69.66 L 282.92,70.11 L 283.49,70.37 L 284.54,70.92 L 284.98,71.24 L 285.81,71.94 L 286.16,72.35 L 286.81,73.23 L 287.09,73.76 L 287.63,74.86 L 287.87,75.51 L 288.34,76.88 L 288.56,77.68 L 291.18,84.98 L 293.39,89.66 L 294.73,91.90 L 297.58,96.32 L 299.24,98.44 L 302.71,102.60 L 304.68,104.59 L 307.52,107.56 L 309.19,109.43 L 309.85,110.23 L 311.05,111.74 L 311.42,112.29 L 312.00,113.25 L 312.00,113.45 L 311.34,114.91 L 310.37,115.94 L 309.75,116.31 L 301.33,121.46 L 296.04,124.79 L 293.67,126.33 L 291.35,127.84 L 290.27,128.55 L 288.18,129.95 L 287.24,130.60 L 285.42,131.85 L 284.63,132.41 L 283.13,133.50 L 282.51,133.97 L 279.82,136.09 L 277.90,137.68 L 276.90,138.54 L 272.75,142.21 L 270.56,144.27 L 266.11,148.50 L 263.86,150.74 L 259.36,155.29 L 257.17,157.60 L 252.85,162.20 L 250.84,164.43 L 246.96,168.83 L 245.26,170.87 L 243.61,172.87 L 242.86,173.82 L 241.42,175.67 L 240.78,176.52 L 239.58,178.19 L 239.07,178.94 L 238.13,180.38 L 237.78,181.01 L 235.87,183.77 L 234.60,185.01 L 233.98,185.34 L 232.74,185.79 L 232.13,185.71 L 230.93,185.36 L 230.35,184.88 L 229.89,184.21 L 229.64,183.46 L 229.54,182.86 L 229.35,181.48 L 229.28,180.49 L 229.15,178.29 L 229.10,176.81 L 229.06,175.25 L 229.04,174.37 L 229.01,172.53 L 229.00,171.48 L 228.97,169.32 L 228.97,168.11 L 228.95,165.60 L 228.95,164.21 L 228.95,161.33 L 228.95,159.74 L 228.96,156.47 L 228.96,154.67 L 228.98,150.97 L 228.98,148.95 L 229.00,144.80 L 229.02,142.54 L 229.06,134.27 L 229.08,128.99 L 229.09,126.51 L 229.11,121.65 L 229.12,119.42 L 229.13,115.11 L 229.13,113.19 L 229.14,109.53 L 229.14,107.98 L 229.15,105.09 L 229.14,103.97 L 229.14,101.97 L 229.14,101.34 L 229.13,100.77 L 229.13,100.59 L 229.12,100.29 L 229.12,100.25 L 228.88,100.07 L 228.50,99.96 L 228.18,99.91 L 227.46,99.81 L 226.97,99.77 L 225.89,99.68 L 225.20,99.64 L 223.72,99.56 L 222.82,99.52 L 220.91,99.45 L 219.79,99.42 L 217.42,99.36 L 216.05,99.33 L 213.19,99.28 L 211.57,99.25 L 208.18,99.21 L 206.29,99.19 L 202.35,99.15 L 200.16,99.13 L 195.64,99.10 L 193.15,99.09 L 188.01,99.07 L 185.20,99.06 L 179.41,99.04 L 176.27,99.03 L 169.80,99.02 L 166.30,99.01 L 159.12,99.01 L 155.25,99.00 L 147.33,99.00 L 231.98,99.00 L 232.24,142.25 L 232.25,144.81 L 232.28,149.49 L 232.30,151.76 L 232.33,155.87 L 232.34,157.86 L 232.37,161.43 L 232.39,163.16 L 232.42,166.24 L 232.44,167.72 L 232.48,170.33 L 232.50,171.58 L 232.54,173.75 L 232.56,174.79 L 232.62,176.56 L 232.64,177.40 L 232.70,178.81 L 232.73,179.47 L 232.81,180.55 L 232.84,181.04 L 232.93,181.81 L 233.02,182.52 L 233.23,183.16 L 233.35,183.37 L 233.64,183.24 L 234.17,182.46 L 234.46,181.92 L 235.23,180.69 L 235.64,180.04 L 236.63,178.61 L 237.67,177.13 L 240.31,173.70 L 241.70,171.92 L 244.92,168.05 L 246.58,166.07 L 250.19,161.96 L 253.86,157.83 L 261.61,149.73 L 263.52,147.79 L 267.20,144.21 L 272.34,139.49 L 272.91,139.00 L 274.42,137.78 L 275.23,137.14 L 277.14,135.68 L 278.13,134.93 L 280.32,133.32 L 281.44,132.50 L 283.81,130.80 L 286.20,129.10 L 291.04,125.80 L 292.22,125.01 L 294.45,123.55 L 297.50,121.62 L 298.42,121.05 L 300.08,120.04 L 300.88,119.56 L 302.30,118.69 L 303.68,117.85 L 305.77,116.52 L 306.71,115.91 L 308.00,114.90 L 308.55,114.43 L 309.10,113.61 L 309.29,113.20 L 309.18,112.41 L 309.05,112.00 L 308.34,111.09 L 307.92,110.61 L 306.69,109.43 L 304.33,107.21 L 302.37,105.33 L 299.00,101.54 L 297.40,99.63 L 294.68,95.66 L 293.39,93.64 L 291.20,89.33 L 288.43,82.33 L 288.07,81.25 L 287.36,79.23 L 287.01,78.25 L 286.38,76.58 L 286.08,75.80 L 285.59,74.65 L 285.10,73.74 L 285.00,73.63 L 284.29,73.30 L 283.85,73.11 L 282.60,72.65 L 281.92,72.41 L 280.29,71.89 L 277.60,71.10 L 276.67,70.84 L 274.88,70.28 L 274.02,70.00 L 272.49,69.45 L 271.78,69.18 L 270.69,68.71 L 269.74,68.14 L 269.54,67.94 L 269.75,67.17 L 269.85,66.94 L 270.21,66.36 L 270.42,66.06 L 271.00,65.33 L 271.32,64.94 L 272.14,64.04 L 272.57,63.56 L 273.63,62.48 L 274.18,61.91 L 275.48,60.64 L 277.72,58.49 L 278.59,57.67 L 280.13,56.18 L 280.86,55.46 L 282.15,54.15 L 283.39,52.88 L 285.22,50.75 L 286.05,49.72 L 287.22,47.89 L 288.47,45.21 L 288.83,44.22 L 289.39,42.58 L 289.64,41.80 L 289.97,40.53 L 290.10,39.93 L 290.15,38.92 L 290.14,38.45 L 289.86,37.62 L 289.68,37.21 L 289.04,36.46 L 288.67,36.08 L 287.61,35.30 L 287.02,34.90 L 285.51,34.00 L 282.68,32.40 L 281.16,31.56 L 278.33,29.88 L 276.95,29.04 L 274.40,27.37 L 273.16,26.53 L 270.89,24.87 L 269.79,24.04 L 267.80,22.39 L 266.84,21.56 L 265.12,19.92 L 264.30,19.09 L 262.86,17.45 L 262.18,16.63 L 261.01,14.99 L 259.57,12.54 L 259.18,11.77 L 258.52,10.31 L 258.21,9.61 L 257.75,8.39 L 257.56,7.82 L 257.35,6.98 L 257.38,6.28 L 257.48,6.19 M 307.98,46.39 L 310.21,46.90 L 311.33,47.36 L 314.18,49.10 L 315.73,50.60 L 316.33,51.49 L 317.40,53.33 L 317.76,54.34 L 318.34,56.40 L 318.44,57.46 L 318.52,59.60 L 318.36,60.65 L 317.93,62.74 L 317.51,63.71 L 316.54,65.62 L 315.85,66.45 L 314.34,68.04 L 313.38,68.67 L 312.54,69.15 L 312.03,69.35 L 310.95,69.72 L 310.34,69.87 L 307.75,70.37 L 306.35,70.46 L 303.55,70.52 L 302.27,70.37 L 299.84,69.96 L 298.95,69.56 L 297.92,68.89 L 297.23,68.23 L 296.89,67.81 L 295.54,65.95 L 294.97,64.82 L 293.90,62.49 L 293.55,61.30 L 293.00,58.96 L 293.00,57.94 L 293.42,54.79 L 294.10,52.88 L 294.61,52.03 L 295.74,50.41 L 296.45,49.72 L 297.96,48.44 L 298.82,47.93 L 300.63,47.03 L 301.61,46.74 L 303.64,46.26 L 304.71,46.20 L 306.87,46.20 M 305.36,48.26 L 303.73,48.45 L 301.07,49.33 L 299.85,49.86 L 297.99,51.43 L 297.17,52.29 L 296.13,54.53 L 295.50,58.60 L 295.50,59.58 L 295.62,61.06 L 295.71,61.75 L 296.09,62.87 L 296.32,63.40 L 297.08,64.41 L 298.77,66.08 L 299.36,66.62 L 300.59,67.48 L 301.20,67.87 L 302.46,68.45 L 303.09,68.71 L 304.35,69.01 L 304.99,69.13 L 306.26,69.16 L 306.89,69.14 L 308.16,68.89 L 308.78,68.73 L 310.02,68.21 L 310.64,67.91 L 311.84,67.11 L 312.44,66.68 L 313.60,65.60 L 314.20,65.00 L 315.17,63.81 L 315.61,63.22 L 316.28,62.03 L 316.58,61.44 L 316.94,60.25 L 317.09,59.66 L 317.15,58.47 L 317.15,57.87 L 316.91,56.68 L 316.75,56.09 L 316.22,54.89 L 315.91,54.29 L 315.07,53.09 L 313.47,51.27 L 312.66,50.46 L 311.43,49.36 L 310.85,48.89 L 309.78,48.37 L 309.23,48.17 L 307.95,48.08 M 392.48,31.75 L 392.82,32.29 L 392.11,31.25 L 391.77,30.77 M 388.22,26.30 L 389.37,27.60 L 391.32,30.15 L 388.12,26.19 M 375.88,15.91 L 377.49,16.94 L 380.46,19.12 L 381.91,20.23 L 384.56,22.57 L 385.86,23.76 L 387.51,25.53 L 385.21,23.18 L 383.65,21.82 L 380.44,19.15 L 378.70,17.90 L 375.33,15.58 M 279.13,16.82 L 280.00,17.00 L 280.22,17.00 L 281.27,17.32 L 281.89,17.52 L 283.56,18.17 L 284.46,18.54 L 286.54,19.45 L 289.88,21.00 L 291.01,21.55 L 293.16,22.55 L 294.20,23.03 L 296.00,23.82 L 296.83,24.19 L 298.07,24.68 L 298.45,24.80 L 297.71,25.00 L 297.26,25.00 L 295.73,24.79 L 294.45,24.46 L 293.70,24.21 L 292.14,23.64 L 291.27,23.27 L 289.47,22.49 L 288.50,22.03 L 284.47,20.02 L 282.31,18.79 L 278.71,16.66 M 372.58,13.89 L 374.22,14.90 L 373.30,14.35 L 371.14,13.12 M 365.14,10.12 L 367.12,11.03 L 367.33,11.14 L 365.00,10.07 M 330.96,6.97 L 331.05,6.95 L 331.81,6.82 M 346.56,5.57 L 349.22,5.86 L 346.37,5.68 L 343.29,5.68 L 341.68,5.76 L 335.19,6.27 L 332.43,6.71 L 336.50,6.02 L 339.06,5.70 L 344.07,5.56 M 353.80,6.44 L 354.27,6.56 L 353.60,6.41 Z" fill="rgba(255,84,30,1)"/>
<path d="M 408.25,492.13 L 407.76,491.45 L 406.71,489.84 L 406.18,489.00 L 405.10,487.12 L 404.02,485.19 L 401.97,480.94 L 401.00,478.82 L 399.42,474.77 L 399.07,473.81 L 398.52,472.06 L 397.97,469.80 L 397.65,468.01 L 397.13,465.00 L 396.89,463.58 L 396.51,461.19 L 396.34,460.06 L 396.09,458.14 L 395.99,457.23 L 395.87,455.62 L 395.79,454.07 L 395.96,451.28 L 396.03,450.56 L 396.24,449.01 L 396.67,446.36 L 397.05,444.16 L 397.95,439.97 L 398.42,437.93 L 399.46,434.26 L 399.98,432.51 L 401.06,429.64 L 401.33,428.99 L 401.86,427.87 L 402.64,426.53 L 403.02,425.99 L 403.60,424.46 L 404.00,422.25 L 404.00,421.87 L 403.84,421.18 L 403.74,420.85 L 403.32,420.27 L 403.07,419.99 L 402.34,419.49 L 401.92,419.25 L 400.81,418.81 L 400.20,418.60 L 398.65,418.21 L 397.82,418.01 L 395.77,417.64 L 394.68,417.45 L 392.08,417.08 L 387.50,416.49 L 382.70,415.92 L 373.50,414.53 L 368.97,413.79 L 360.34,412.07 L 356.09,411.17 L 348.01,409.13 L 344.04,408.07 L 336.54,405.70 L 332.86,404.48 L 325.94,401.80 L 322.55,400.42 L 316.21,397.43 L 313.12,395.89 L 307.38,392.59 L 299.46,387.28 L 297.65,385.94 L 294.23,383.15 L 292.56,381.74 L 289.41,378.82 L 287.86,377.35 L 284.98,374.29 L 283.57,372.74 L 280.94,369.53 L 279.66,367.91 L 277.28,364.55 L 276.13,362.85 L 274.01,359.34 L 272.98,357.56 L 271.10,353.88 L 268.56,348.18 L 268.07,346.97 L 267.25,344.97 L 266.86,344.03 L 266.21,342.52 L 265.90,341.81 L 265.37,340.72 L 265.12,340.21 L 264.67,339.47 L 264.24,338.80 L 263.42,338.23 L 261.92,338.00 L 261.43,338.00 L 259.74,338.32 L 258.80,338.52 L 256.37,339.19 L 255.08,339.56 L 252.13,340.51 L 250.60,341.02 L 247.31,342.17 L 243.99,343.36 L 237.23,346.06 L 235.60,346.73 L 232.57,348.06 L 228.59,349.96 L 225.55,351.50 L 219.72,354.87 L 216.83,356.60 L 211.27,360.38 L 208.52,362.32 L 203.20,366.53 L 200.57,368.69 L 195.45,373.36 L 192.92,375.76 L 187.98,380.93 L 185.53,383.58 L 180.74,389.28 L 178.36,392.20 L 173.68,398.45 L 166.75,408.50 L 165.85,409.87 L 163.75,413.32 L 162.66,415.14 L 160.31,419.23 L 157.94,423.41 L 153.17,432.31 L 152.04,434.47 L 149.98,438.52 L 149.00,440.47 L 147.39,443.85 L 147.02,444.64 L 146.39,446.03 L 146.10,446.70 L 145.64,447.81 L 145.43,448.33 L 145.17,449.13 L 145.00,449.93 L 145.00,450.09 L 144.84,450.70 L 144.73,451.04 L 144.39,451.94 L 142.92,455.16 L 142.68,455.63 L 142.08,456.98 L 141.77,457.72 L 141.06,459.48 L 140.33,461.33 L 138.77,465.62 L 138.01,467.77 L 136.71,471.79 L 136.41,472.72 L 135.95,474.32 L 135.48,476.19 L 135.39,476.65 L 134.91,477.99 L 134.02,479.96 L 133.72,480.53 L 133.41,481.72 L 133.51,483.02 L 133.66,483.26 L 133.77,483.60 L 133.80,483.75 L 133.69,483.93 L 133.53,484.06 L 132.65,483.87 L 132.14,483.70 L 130.72,482.94 L 128.18,481.26 L 127.17,480.50 L 125.44,479.14 L 125.06,478.84 L 124.48,478.36 L 124.00,477.91 L 123.93,477.82 L 123.21,477.21 L 122.76,476.83 L 121.42,475.75 L 120.68,475.16 L 118.90,473.74 L 115.91,471.40 L 114.88,470.60 L 112.58,468.81 L 111.39,467.88 L 108.75,465.82 L 107.38,464.75 L 104.36,462.38 L 102.79,461.16 L 99.35,458.46 L 97.57,457.06 L 93.66,453.99 L 91.65,452.41 L 87.25,448.96 L 84.98,447.17 L 80.04,443.29 L 72.00,436.97 L 69.33,434.86 L 64.41,431.02 L 62.03,429.16 L 57.70,425.81 L 55.62,424.20 L 51.89,421.36 L 50.11,420.00 L 47.01,417.68 L 45.54,416.58 L 43.07,414.78 L 41.91,413.95 L 40.10,412.69 L 39.27,412.13 L 38.12,411.43 L 37.16,411.00 L 36.87,411.00 L 36.17,410.63 L 35.30,409.73 L 35.12,409.43 L 34.49,408.76 L 34.11,408.40 L 32.94,407.47 L 32.27,406.95 L 30.33,405.59 L 29.79,405.22 L 28.53,404.36 L 26.33,402.89 L 23.92,401.28 L 26.71,400.15 L 27.06,400.01 L 28.03,399.68 L 28.56,399.51 L 29.85,399.12 L 31.21,398.71 L 34.69,397.79 L 36.52,397.31 L 40.61,396.33 L 47.00,394.90 L 48.24,394.63 L 50.82,394.38 L 51.42,394.34 L 52.48,394.34 L 53.68,394.47 L 54.28,394.62 L 56.03,394.54 L 58.60,393.96 L 59.13,393.76 L 60.15,393.54 L 60.67,393.47 L 61.79,393.51 L 62.38,393.57 L 63.74,393.88 L 66.23,394.68 L 67.22,395.04 L 68.71,395.50 L 69.38,395.70 L 70.33,395.84 L 70.75,395.87 L 71.32,395.70 L 71.93,395.11 L 72.09,394.86 L 72.90,394.56 L 73.38,394.45 L 74.71,394.38 L 75.43,394.37 L 77.11,394.50 L 77.98,394.59 L 79.82,394.88 L 81.68,395.21 L 85.15,396.24 L 85.94,396.52 L 87.23,397.12 L 88.57,398.08 L 89.05,398.60 L 90.16,399.43 L 91.52,400.00 L 91.61,400.00 L 91.97,400.09 L 92.18,400.15 L 92.78,400.35 L 93.42,400.57 L 95.28,401.29 L 96.29,401.69 L 98.69,402.69 L 102.62,404.40 L 103.75,404.90 L 105.65,405.73 L 106.54,406.12 L 108.02,406.74 L 108.72,407.02 L 109.85,407.44 L 110.38,407.63 L 111.22,407.86 L 112.01,408.06 L 113.03,407.96 L 114.25,407.24 L 114.73,406.82 L 115.49,405.82 L 116.00,404.60 L 116.00,404.46 L 116.22,403.63 L 116.37,403.13 L 116.85,401.66 L 117.12,400.86 L 117.81,398.88 L 118.18,397.84 L 119.04,395.48 L 119.93,393.04 L 122.01,387.58 L 125.18,379.50 L 125.76,378.08 L 127.10,374.94 L 127.80,373.33 L 129.33,369.93 L 130.91,366.48 L 134.38,359.29 L 136.13,355.74 L 139.58,349.11 L 140.42,347.53 L 142.00,344.65 L 144.19,340.86 L 144.99,339.54 L 146.45,337.04 L 147.14,335.83 L 148.29,333.75 L 148.82,332.78 L 149.54,331.34 L 149.69,331.03 L 149.88,330.57 L 150.00,330.16 L 150.00,329.87 L 150.41,329.18 L 151.40,328.30 L 151.61,328.18 L 152.34,327.47 L 152.75,327.05 L 153.78,325.88 L 154.85,324.62 L 157.34,321.42 L 157.95,320.61 L 159.10,319.04 L 159.65,318.27 L 160.58,316.90 L 161.01,316.25 L 161.61,315.24 L 162.00,314.31 L 162.00,314.15 L 162.30,313.61 L 162.49,313.31 L 163.09,312.56 L 163.75,311.77 L 165.50,310.02 L 166.38,309.18 L 167.93,307.93 L 168.26,307.69 L 168.74,307.45 L 169.06,307.55 L 169.07,307.68 L 169.16,307.74 L 169.21,307.74 L 169.38,307.55 L 170.04,306.23 L 170.29,305.60 L 171.20,304.43 L 172.73,303.29 L 172.97,303.20 L 173.92,302.65 L 174.45,302.32 L 175.85,301.39 L 176.59,300.89 L 178.26,299.70 L 180.88,297.76 L 182.92,296.21 L 187.50,293.24 L 189.86,291.79 L 194.96,289.09 L 197.56,287.79 L 202.98,285.46 L 211.27,282.49 L 212.24,282.18 L 213.88,281.66 L 214.65,281.41 L 215.91,280.96 L 216.50,280.75 L 217.45,280.37 L 217.88,280.18 L 218.55,279.82 L 219.15,279.47 L 219.73,278.73 L 220.00,277.38 L 220.00,276.73 L 219.63,275.69 L 218.75,274.95 L 218.51,274.95 L 217.22,274.93 L 216.46,274.93 L 214.23,274.93 L 213.01,274.93 L 209.96,274.93 L 208.35,274.93 L 204.60,274.95 L 202.65,274.95 L 198.33,274.97 L 196.12,274.98 L 191.35,275.00 L 188.93,275.01 L 183.84,275.04 L 181.27,275.05 L 176.00,275.08 L 170.69,275.11 L 160.03,275.18 L 157.40,275.20 L 152.29,275.24 L 149.77,275.25 L 144.96,275.29 L 142.60,275.31 L 138.22,275.35 L 136.10,275.37 L 132.28,275.40 L 130.45,275.42 L 127.31,275.46 L 123.50,275.51 L 116.88,275.61 L 103.37,275.91 L 100.04,275.99 L 93.57,276.17 L 90.39,276.26 L 84.37,276.46 L 81.44,276.55 L 76.07,276.75 L 73.50,276.85 L 69.00,277.06 L 67.94,277.11 L 66.01,277.20 L 65.09,277.25 L 63.45,277.35 L 62.67,277.40 L 61.35,277.49 L 59.75,277.63 L 54.00,278.20 L 54.00,271.80 L 54.00,270.91 L 54.09,269.21 L 54.15,268.39 L 54.34,266.93 L 54.45,266.25 L 54.71,265.19 L 55.17,264.23 L 55.22,264.18 L 55.33,263.67 L 55.38,263.35 L 55.47,262.33 L 55.52,261.76 L 55.61,260.28 L 55.66,259.48 L 55.74,257.56 L 55.79,256.54 L 55.86,254.22 L 55.90,253.01 L 55.97,250.32 L 56.01,248.93 L 56.07,245.90 L 56.11,244.35 L 56.16,241.03 L 56.22,237.63 L 56.31,230.09 L 56.36,226.22 L 56.42,217.93 L 56.45,213.71 L 56.49,204.94 L 56.51,200.52 L 56.52,191.54 L 56.52,187.05 L 56.51,178.14 L 56.50,173.72 L 56.45,165.16 L 56.43,160.94 L 56.36,152.99 L 56.32,149.12 L 56.22,142.06 L 56.19,140.36 L 56.14,137.18 L 56.11,135.63 L 56.04,132.77 L 56.01,131.38 L 55.94,128.87 L 55.90,127.66 L 55.82,125.53 L 55.78,124.52 L 55.69,122.81 L 55.65,122.01 L 55.56,120.75 L 55.51,120.18 L 55.41,119.42 L 55.25,118.85 L 55.05,118.65 L 54.71,117.75 L 54.56,117.22 L 54.32,115.68 L 54.22,114.84 L 54.08,112.72 L 54.00,108.91 L 54.00,108.03 L 54.02,106.52 L 54.03,105.80 L 54.07,104.57 L 54.12,103.41 L 54.31,101.81 L 54.43,101.12 L 54.80,100.28 L 55.58,99.61 L 55.64,99.59 L 56.19,99.55 L 56.54,99.52 L 57.65,99.49 L 58.28,99.47 L 59.93,99.43 L 60.82,99.41 L 62.98,99.37 L 64.11,99.35 L 66.74,99.32 L 68.12,99.30 L 71.19,99.27 L 72.78,99.25 L 76.27,99.22 L 78.06,99.21 L 81.94,99.18 L 83.92,99.16 L 88.15,99.14 L 90.31,99.13 L 94.86,99.10 L 97.17,99.09 L 102.02,99.07 L 104.48,99.06 L 109.60,99.05 L 114.77,99.03 L 125.79,99.01 L 143.08,99.00 L 147.33,99.00 L 155.25,99.00 L 159.12,99.01 L 166.30,99.01 L 169.80,99.02 L 176.27,99.03 L 179.41,99.04 L 185.20,99.06 L 188.01,99.07 L 193.15,99.09 L 195.64,99.10 L 200.16,99.13 L 202.35,99.15 L 206.29,99.19 L 208.18,99.21 L 211.57,99.25 L 213.19,99.28 L 216.05,99.33 L 217.42,99.36 L 219.79,99.42 L 220.91,99.45 L 222.82,99.52 L 223.72,99.56 L 225.20,99.64 L 225.89,99.68 L 226.97,99.77 L 227.46,99.81 L 228.18,99.91 L 228.50,99.96 L 228.88,100.07 L 229.12,100.25 L 229.12,100.29 L 229.13,100.59 L 229.13,100.77 L 229.14,101.34 L 229.14,101.97 L 229.14,103.97 L 229.15,105.09 L 229.14,107.98 L 229.14,109.53 L 229.13,113.19 L 229.13,115.11 L 229.12,119.42 L 229.11,121.65 L 229.09,126.51 L 229.08,128.99 L 229.06,134.27 L 229.02,142.54 L 229.00,144.80 L 228.98,148.95 L 228.98,150.97 L 228.96,154.67 L 228.96,156.47 L 228.95,159.74 L 228.95,161.33 L 228.95,164.21 L 228.95,165.60 L 228.97,168.11 L 228.97,169.32 L 229.00,171.48 L 229.01,172.53 L 229.04,174.37 L 229.06,175.25 L 229.10,176.81 L 229.15,178.29 L 229.28,180.49 L 229.35,181.48 L 229.54,182.86 L 229.64,183.46 L 229.89,184.21 L 230.35,184.88 L 230.93,185.36 L 232.13,185.71 L 232.74,185.79 L 233.98,185.34 L 234.60,185.01 L 235.87,183.77 L 237.78,181.01 L 238.13,180.38 L 239.07,178.94 L 239.58,178.19 L 240.78,176.52 L 241.42,175.67 L 242.86,173.82 L 243.61,172.87 L 245.26,170.87 L 246.96,168.83 L 250.84,164.43 L 252.85,162.20 L 257.17,157.60 L 259.36,155.29 L 263.86,150.74 L 266.11,148.50 L 270.56,144.27 L 272.75,142.21 L 276.90,138.54 L 277.90,137.68 L 279.82,136.09 L 282.51,133.97 L 283.13,133.50 L 284.63,132.41 L 285.42,131.85 L 287.24,130.60 L 288.18,129.95 L 290.27,128.55 L 291.35,127.84 L 293.67,126.33 L 296.04,124.79 L 301.33,121.46 L 309.75,116.31 L 310.37,115.94 L 311.34,114.91 L 312.00,113.45 L 312.00,113.25 L 311.42,112.29 L 311.05,111.74 L 309.85,110.23 L 309.19,109.43 L 307.52,107.56 L 304.68,104.59 L 302.71,102.60 L 299.24,98.44 L 297.58,96.32 L 294.73,91.90 L 293.39,89.66 L 291.18,84.98 L 288.56,77.68 L 288.34,76.88 L 287.87,75.51 L 287.63,74.86 L 287.09,73.76 L 286.81,73.23 L 286.16,72.35 L 285.81,71.94 L 284.98,71.24 L 284.54,70.92 L 283.49,70.37 L 282.92,70.11 L 281.58,69.66 L 280.87,69.45 L 279.20,69.07 L 276.25,68.52 L 275.08,68.33 L 273.25,67.91 L 272.86,67.81 L 272.34,67.63 L 272.00,67.42 L 272.00,67.39 L 272.16,67.19 L 272.26,67.06 L 272.61,66.68 L 273.01,66.25 L 274.29,64.95 L 274.99,64.24 L 276.76,62.50 L 279.79,59.58 L 280.61,58.79 L 282.05,57.39 L 282.73,56.71 L 283.90,55.49 L 285.02,54.30 L 286.67,52.20 L 287.43,51.15 L 288.64,48.95 L 290.36,45.00 L 290.75,44.01 L 291.40,42.11 L 291.71,41.19 L 292.18,39.54 L 292.38,38.77 L 292.61,37.56 L 292.62,36.46 L 292.55,36.27 L 291.92,35.67 L 291.54,35.35 L 290.41,34.56 L 289.80,34.15 L 288.32,33.26 L 285.85,31.92 L 284.36,31.17 L 281.37,29.44 L 279.88,28.54 L 276.95,26.57 L 275.51,25.57 L 272.77,23.48 L 271.43,22.43 L 268.99,20.32 L 267.81,19.27 L 265.78,17.24 L 264.82,16.24 L 263.31,14.38 L 262.63,13.49 L 261.75,11.91 L 261.28,9.97 L 261.31,9.51 L 261.39,8.94 L 261.45,8.71 L 261.65,8.61 L 261.78,8.61 L 262.22,8.98 L 263.27,10.06 L 263.78,10.61 L 264.83,11.30 L 265.99,11.51 L 266.23,11.36 L 266.79,11.42 L 267.49,11.98 L 267.66,12.26 L 268.66,12.70 L 270.60,13.00 L 271.28,13.00 L 273.15,13.53 L 275.79,14.79 L 277.95,16.22 L 282.31,18.79 L 284.47,20.02 L 288.50,22.03 L 289.47,22.49 L 291.27,23.27 L 292.14,23.64 L 293.70,24.21 L 294.45,24.46 L 295.73,24.79 L 297.26,25.00 L 297.71,25.00 L 298.81,24.71 L 299.39,24.51 L 300.74,23.84 L 301.44,23.46 L 303.00,22.43 L 305.55,20.50 L 307.07,19.26 L 310.69,16.70 L 311.57,16.10 L 313.22,15.05 L 315.29,13.87 L 316.45,13.28 L 318.42,12.11 L 318.85,11.84 L 319.50,11.39 L 320.04,10.90 L 320.30,10.49 L 321.52,9.70 L 322.23,9.32 L 324.22,8.59 L 325.29,8.23 L 327.85,7.59 L 329.19,7.28 L 332.15,6.76 L 335.19,6.27 L 341.68,5.76 L 343.29,5.68 L 346.37,5.68 L 350.64,5.94 L 352.41,6.14 L 356.12,6.97 L 357.99,7.44 L 361.84,8.78 L 363.76,9.50 L 367.62,11.27 L 369.54,12.21 L 373.30,14.35 L 375.16,15.46 L 378.70,17.90 L 380.44,19.15 L 383.65,21.82 L 385.21,23.18 L 387.98,26.02 L 391.50,30.38 L 392.11,31.25 L 393.13,32.74 L 393.61,33.45 L 394.40,34.67 L 394.78,35.25 L 395.37,36.24 L 395.64,36.72 L 396.06,37.55 L 396.45,38.36 L 396.82,39.73 L 396.99,41.91 L 397.00,42.38 L 397.20,43.58 L 397.32,44.20 L 397.74,45.59 L 399.53,49.63 L 400.07,50.56 L 400.79,51.93 L 401.09,52.57 L 401.37,53.53 L 401.46,53.99 L 401.35,54.77 L 400.79,55.97 L 400.53,56.38 L 400.22,57.06 L 400.09,57.39 L 400.02,57.99 L 400.02,58.29 L 400.20,58.92 L 400.76,59.99 L 401.14,60.59 L 401.63,62.16 L 401.83,62.97 L 401.96,64.68 L 401.98,65.53 L 401.74,67.02 L 400.97,68.63 L 400.83,68.77 L 400.52,69.42 L 400.37,69.80 L 400.08,70.81 L 399.41,74.58 L 399.34,75.28 L 398.89,77.18 L 398.63,78.19 L 397.86,80.52 L 394.79,87.97 L 394.10,89.38 L 392.51,92.16 L 391.68,93.54 L 389.83,96.23 L 388.87,97.57 L 386.77,100.14 L 385.70,101.40 L 383.39,103.82 L 382.22,105.01 L 379.74,107.25 L 378.47,108.35 L 375.84,110.38 L 374.50,111.37 L 371.75,113.17 L 367.50,115.57 L 366.33,116.16 L 364.40,117.19 L 363.48,117.70 L 361.93,118.73 L 361.19,119.27 L 359.88,120.55 L 359.24,121.24 L 358.02,122.98 L 357.40,123.94 L 356.11,126.40 L 355.78,127.07 L 355.08,128.58 L 354.72,129.37 L 353.94,131.14 L 353.55,132.06 L 352.69,134.11 L 352.25,135.18 L 351.28,137.55 L 350.79,138.78 L 349.70,141.50 L 347.91,146.00 L 346.73,148.96 L 344.25,155.56 L 343.01,158.95 L 340.47,166.15 L 337.95,173.43 L 333.14,188.44 L 331.99,192.12 L 329.89,199.18 L 328.87,202.64 L 327.11,209.01 L 326.70,210.55 L 325.95,213.43 L 325.59,214.84 L 324.96,217.45 L 324.66,218.71 L 324.17,220.99 L 323.59,224.00 L 323.43,224.96 L 323.01,227.21 L 322.45,230.00 L 322.17,231.33 L 321.59,234.41 L 321.30,236.02 L 320.73,239.64 L 320.44,241.51 L 319.86,245.64 L 319.01,252.41 L 318.89,253.38 L 318.70,255.11 L 318.62,255.93 L 318.49,257.36 L 318.37,258.73 L 318.32,260.77 L 318.33,261.70 L 318.52,263.06 L 319.08,264.65 L 319.33,265.12 L 319.64,265.98 L 319.76,266.41 L 319.81,267.33 L 319.81,267.81 L 319.59,268.94 L 318.97,271.08 L 318.79,271.63 L 318.52,272.95 L 318.40,273.64 L 318.26,275.22 L 318.14,276.85 L 318.24,280.75 L 318.34,282.78 L 318.85,287.26 L 319.15,289.56 L 320.01,294.38 L 320.47,296.80 L 321.63,301.68 L 322.25,304.11 L 323.65,308.79 L 324.39,311.08 L 325.99,315.30 L 328.58,320.82 L 329.64,322.76 L 332.16,326.79 L 333.45,328.77 L 335.99,332.31 L 336.60,333.13 L 337.73,334.55 L 338.27,335.22 L 339.21,336.26 L 339.65,336.72 L 340.34,337.29 L 341.00,337.50 L 341.28,337.33 L 341.94,337.54 L 342.27,337.72 L 342.87,338.38 L 343.14,338.73 L 343.42,339.52 L 343.24,340.50 L 343.04,340.73 L 343.05,340.89 L 343.62,340.68 L 343.91,340.52 L 344.84,340.82 L 345.33,341.05 L 346.33,341.84 L 346.80,342.27 L 347.43,343.16 L 347.54,343.37 L 347.63,343.74 L 347.49,344.18 L 347.40,344.27 L 347.49,344.59 L 347.57,344.78 L 347.99,345.29 L 348.23,345.56 L 348.94,346.23 L 349.32,346.57 L 350.28,347.37 L 351.30,348.19 L 353.95,350.14 L 355.36,351.14 L 358.59,353.32 L 361.91,355.52 L 369.10,359.84 L 370.86,360.85 L 374.15,362.62 L 378.50,364.71 L 380.48,365.57 L 384.82,367.29 L 387.01,368.13 L 391.29,369.68 L 393.37,370.41 L 396.99,371.57 L 397.83,371.82 L 399.26,372.22 L 401.00,372.63 L 401.96,372.81 L 404.21,373.44 L 407.00,374.47 L 407.69,374.79 L 409.26,375.19 L 411.18,375.26 L 411.41,375.21 L 412.08,375.24 L 412.44,375.27 L 413.28,375.46 L 415.94,376.47 L 416.53,376.77 L 417.51,377.18 L 417.98,377.34 L 418.79,377.49 L 421.03,376.98 L 421.58,376.69 L 422.66,376.35 L 423.77,376.35 L 423.85,376.40 L 424.56,376.56 L 425.00,376.65 L 426.33,376.88 L 427.06,377.00 L 428.89,377.27 L 429.86,377.41 L 432.07,377.72 L 434.35,378.03 L 439.53,378.68 L 447.29,379.57 L 448.33,379.68 L 450.56,380.17 L 451.09,380.31 L 452.03,380.61 L 453.13,381.07 L 453.70,381.38 L 455.36,381.64 L 457.84,381.46 L 458.21,381.36 L 459.41,381.17 L 460.07,381.08 L 461.70,380.92 L 467.25,380.63 L 467.97,380.61 L 469.19,380.60 L 469.76,380.60 L 470.72,380.62 L 471.62,380.65 L 472.77,380.83 L 473.26,380.94 L 473.75,381.33 L 474.00,382.20 L 474.00,382.67 L 473.58,383.64 L 472.57,384.70 L 472.38,384.81 L 471.85,385.37 L 471.58,385.69 L 470.95,386.59 L 469.06,390.00 L 468.78,390.62 L 468.06,392.10 L 467.68,392.86 L 466.86,394.47 L 466.45,395.28 L 465.62,396.84 L 464.49,398.91 L 463.80,400.13 L 462.88,402.18 L 462.70,402.63 L 462.51,403.30 L 462.51,403.84 L 462.58,403.92 L 462.52,404.25 L 462.46,404.44 L 462.17,404.96 L 460.64,406.93 L 460.31,407.28 L 459.34,408.64 L 458.81,409.40 L 457.56,411.39 L 456.91,412.44 L 455.54,414.80 L 453.50,418.50 L 452.85,419.74 L 451.36,422.51 L 450.60,423.91 L 449.04,426.77 L 448.27,428.17 L 446.83,430.77 L 445.00,434.00 L 444.49,434.89 L 443.28,437.04 L 442.65,438.14 L 441.34,440.50 L 440.68,441.68 L 439.43,443.96 L 437.78,447.00 L 437.30,447.89 L 436.12,450.12 L 435.50,451.27 L 434.15,453.79 L 433.47,455.06 L 432.12,457.57 L 430.28,461.00 L 429.73,462.03 L 428.27,464.77 L 427.50,466.22 L 425.77,469.49 L 424.89,471.15 L 423.10,474.55 L 420.58,479.36 L 419.79,480.88 L 418.39,483.51 L 417.73,484.77 L 416.57,486.91 L 416.01,487.93 L 415.06,489.63 L 414.61,490.43 L 413.84,491.72 L 413.47,492.32 L 412.86,493.24 L 412.58,493.66 L 412.10,494.26 L 411.88,494.52 L 411.52,494.82 L 411.07,495.00 L 410.98,495.00 L 410.63,494.77 L 410.44,494.63 L 409.96,494.16 L 409.45,493.64 M 114.30,250.26 L 115.49,250.20 L 117.61,250.17 L 118.63,250.17 L 120.33,250.25 L 121.13,250.31 L 122.32,250.51 L 123.41,250.92 L 123.84,251.28 L 125.11,251.50 L 127.60,251.07 L 128.00,250.94 L 129.18,250.66 L 129.82,250.52 L 131.33,250.23 L 136.23,249.50 L 137.02,249.41 L 138.50,249.19 L 139.21,249.07 L 140.44,248.80 L 141.00,248.67 L 141.83,248.39 L 142.49,248.02 L 142.56,247.90 L 143.01,247.64 L 143.28,247.50 L 144.05,247.22 L 147.06,246.49 L 148.17,246.30 L 150.42,245.46 L 150.94,245.24 L 151.84,244.73 L 152.82,243.96 L 153.20,243.55 L 153.93,243.01 L 154.31,242.79 L 155.27,242.58 L 155.81,242.52 L 157.31,242.61 L 160.52,243.05 L 162.14,243.30 L 165.35,243.71 L 166.19,243.81 L 168.00,244.00 L 168.93,244.09 L 171.01,244.26 L 172.10,244.35 L 174.56,244.52 L 175.85,244.61 L 178.80,244.79 L 180.34,244.89 L 183.89,245.09 L 190.00,245.42 L 191.58,245.50 L 194.63,245.74 L 196.11,245.87 L 198.74,246.16 L 199.97,246.32 L 201.88,246.64 L 202.30,246.72 L 202.95,246.87 L 203.60,247.10 L 203.99,247.30 L 204.82,247.53 L 205.24,247.62 L 206.21,247.63 L 206.72,247.60 L 207.93,247.37 L 210.10,246.76 L 210.78,246.55 L 212.65,246.18 L 213.65,246.01 L 216.08,245.75 L 217.34,245.63 L 220.18,245.49 L 224.75,245.42 L 226.16,245.43 L 228.73,245.39 L 229.95,245.37 L 231.99,245.26 L 232.92,245.20 L 234.19,245.04 L 234.45,244.99 L 234.79,244.90 L 235.00,244.75 L 235.00,244.65 L 235.33,244.46 L 235.55,244.37 L 236.25,244.22 L 239.25,243.99 L 240.42,243.99 L 243.28,243.72 L 243.98,243.63 L 245.31,243.42 L 247.00,243.06 L 247.96,242.81 L 250.50,242.27 L 254.00,241.66 L 254.51,241.59 L 255.74,241.32 L 256.38,241.16 L 257.84,240.73 L 259.36,240.27 L 262.94,238.93 L 264.80,238.21 L 268.85,236.48 L 270.91,235.58 L 275.12,233.59 L 277.22,232.58 L 281.30,230.48 L 283.29,229.43 L 286.93,227.36 L 288.67,226.35 L 291.58,224.46 L 292.25,224.00 L 293.40,223.15 L 294.79,221.98 L 295.29,221.52 L 296.00,220.61 L 296.29,220.15 L 296.50,219.11 L 296.53,218.56 L 296.11,217.21 L 295.81,216.48 L 294.65,214.63 L 294.30,214.13 L 293.45,213.01 L 293.00,212.43 L 291.92,211.12 L 291.35,210.44 L 290.02,208.93 L 289.33,208.14 L 287.74,206.40 L 286.91,205.49 L 285.05,203.50 L 284.08,202.46 L 281.93,200.19 L 280.81,199.02 L 278.35,196.45 L 274.30,192.24 L 273.34,191.25 L 271.61,189.46 L 270.77,188.59 L 269.25,187.04 L 268.51,186.29 L 267.16,184.96 L 266.51,184.33 L 265.33,183.22 L 264.19,182.18 L 262.28,180.71 L 261.37,180.08 L 259.80,179.40 L 259.04,179.15 L 257.62,179.21 L 256.91,179.32 L 255.45,180.04 L 254.70,180.47 L 253.01,181.80 L 250.02,184.40 L 248.35,185.90 L 244.43,188.73 L 242.38,190.12 L 237.76,192.73 L 235.37,194.01 L 230.12,196.38 L 227.42,197.53 L 221.61,199.63 L 218.65,200.64 L 212.36,202.44 L 209.16,203.31 L 202.46,204.79 L 199.06,205.49 L 192.02,206.63 L 181.15,207.92 L 179.43,208.08 L 176.52,208.43 L 175.15,208.61 L 172.96,209.02 L 171.96,209.23 L 170.48,209.69 L 169.08,210.43 L 168.46,210.99 L 166.87,211.65 L 166.04,211.91 L 164.30,211.97 L 163.44,211.93 L 161.91,211.41 L 160.24,210.01 L 160.07,209.74 L 159.68,208.70 L 159.48,208.12 L 159.07,206.62 L 158.01,201.26 L 157.63,198.72 L 156.76,194.17 L 156.30,191.98 L 155.24,188.13 L 154.68,186.29 L 153.43,183.14 L 152.79,181.65 L 151.34,179.18 L 150.59,178.02 L 148.95,176.22 L 148.10,175.41 L 146.24,174.27 L 145.29,173.78 L 143.22,173.30 L 139.86,173.29 L 138.88,173.42 L 137.10,173.88 L 136.24,174.14 L 134.70,174.84 L 133.96,175.23 L 132.66,176.19 L 132.04,176.70 L 130.99,177.91 L 130.49,178.54 L 129.68,180.00 L 129.31,180.75 L 128.75,182.45 L 128.50,183.33 L 128.19,185.28 L 128.00,188.47 L 128.00,189.71 L 127.87,191.67 L 127.83,192.08 L 127.73,192.64 L 127.56,193.00 L 127.50,193.00 L 126.66,192.76 L 126.15,192.60 L 124.56,192.10 L 123.69,191.82 L 121.55,191.12 L 117.96,189.93 L 115.78,189.20 L 111.74,188.06 L 109.77,187.54 L 106.16,186.83 L 104.40,186.52 L 101.22,186.23 L 99.69,186.13 L 96.96,186.26 L 95.64,186.38 L 93.36,186.94 L 92.27,187.26 L 90.45,188.24 L 89.59,188.78 L 88.23,190.17 L 86.72,192.74 L 86.18,194.10 L 85.69,196.48 L 85.55,197.62 L 85.90,199.65 L 86.18,200.64 L 87.39,202.45 L 90.20,205.03 L 94.14,207.88 L 89.82,209.00 L 88.38,209.37 L 85.91,210.07 L 84.73,210.41 L 82.75,211.09 L 81.82,211.42 L 80.28,212.11 L 79.57,212.45 L 78.43,213.18 L 77.90,213.55 L 77.11,214.35 L 76.75,214.77 L 76.26,215.68 L 76.05,216.16 L 75.80,217.22 L 75.67,219.02 L 75.67,219.82 L 75.89,221.30 L 76.04,222.03 L 76.56,223.36 L 76.85,224.01 L 77.66,225.19 L 78.10,225.75 L 79.20,226.77 L 79.79,227.26 L 81.17,228.12 L 81.90,228.53 L 83.56,229.22 L 84.43,229.54 L 86.38,230.07 L 89.60,230.67 L 90.72,230.82 L 92.31,231.20 L 92.99,231.40 L 93.71,231.88 L 93.97,232.13 L 93.82,232.71 L 92.65,233.70 L 92.18,233.98 L 91.38,234.70 L 91.00,235.09 L 90.39,236.01 L 89.82,236.96 L 89.28,239.21 L 89.11,240.36 L 89.41,242.71 L 90.87,245.87 L 91.14,246.22 L 91.96,246.95 L 92.41,247.31 L 93.52,248.03 L 94.68,248.73 L 97.44,249.95 L 98.83,250.50 L 101.48,251.18 L 102.10,251.31 L 103.19,251.40 L 104.50,251.28 L 104.77,251.20 L 105.89,251.01 L 106.53,250.92 L 108.20,250.74 L 109.98,250.55 M 313.38,68.67 L 314.34,68.04 L 315.85,66.45 L 316.54,65.62 L 317.51,63.71 L 317.93,62.74 L 318.36,60.65 L 318.52,59.60 L 318.44,57.46 L 318.34,56.40 L 317.76,54.34 L 317.40,53.33 L 316.33,51.49 L 315.73,50.60 L 314.18,49.10 L 311.33,47.36 L 310.21,46.90 L 307.98,46.39 L 306.87,46.20 L 304.71,46.20 L 303.64,46.26 L 301.61,46.74 L 300.63,47.03 L 298.82,47.93 L 297.96,48.44 L 296.45,49.72 L 295.74,50.41 L 294.61,52.03 L 294.10,52.88 L 293.42,54.79 L 293.00,57.94 L 293.00,58.96 L 293.55,61.30 L 293.90,62.49 L 294.97,64.82 L 295.54,65.95 L 296.89,67.81 L 297.23,68.23 L 297.92,68.89 L 298.95,69.56 L 299.84,69.96 L 302.27,70.37 L 303.55,70.52 L 306.35,70.46 L 307.75,70.37 L 310.34,69.87 L 310.95,69.72 L 312.03,69.35 L 312.54,69.15 M 100.50,232.00 L 100.22,231.55 L 100.08,230.92 L 100.09,230.66 L 100.57,230.40 L 100.89,230.31 L 102.04,230.39 L 104.60,230.88 L 105.15,231.01 L 105.97,231.25 L 106.33,231.37 L 106.75,231.56 L 106.90,231.65 L 106.88,231.79 L 106.33,231.90 L 105.74,231.93 L 104.37,232.14 L 102.68,232.57 L 102.28,232.72 L 101.43,232.64 L 101.04,232.53 Z" fill="rgba(255,87,34,1)"/>
</g>
</svg>